<?xml version="1.0" encoding="UTF-8" standalone="no"?>
<svg width="377px" height="68px" viewBox="0 0 377 68" version="1.1" xmlns="http://www.w3.org/2000/svg" xmlns:xlink="http://www.w3.org/1999/xlink" xmlns:sketch="http://www.bohemiancoding.com/sketch/ns">
    <!-- Generator: Sketch 3.3.2 (12043) - http://www.bohemiancoding.com/sketch -->
    <title>Imported Layers</title>
    <desc>Created with Sketch.</desc>
    <defs></defs>
    <g id="Page-1" stroke="none" stroke-width="1" fill="none" fill-rule="evenodd" sketch:type="MSPage">
        <g id="llanding" sketch:type="MSArtboardGroup" transform="translate(-151.000000, -342.000000)">
            <g id="nome-+-email-+-Já-pensou-em-comprar-+-Rectangle-119-+-Imported-Layers" sketch:type="MSLayerGroup" transform="translate(151.000000, 341.000000)">
                <g id="Já-pensou-em-comprar-+-Rectangle-119-+-Imported-Layers" sketch:type="MSShapeGroup">
                    <g id="Imported-Layers" transform="translate(0.000000, 0.500000)">
                        <path d="M11.759,3.973 L11.759,20.911 C14.025,17.148 17.64,15.265 22.601,15.265 C26.708,15.265 30.033,16.635 32.578,19.372 C35.123,22.109 36.397,25.831 36.397,30.535 L36.397,51.451 L25.488,51.451 L25.488,32.011 C25.488,29.701 24.879,27.915 23.66,26.653 C22.441,25.393 20.762,24.761 18.624,24.761 C16.484,24.761 14.807,25.393 13.588,26.653 C12.368,27.915 11.759,29.701 11.759,32.011 L11.759,51.451 L0.787,51.451 L0.787,3.973 L11.759,3.973" id="Fill-1" fill="#211914"></path>
                        <path d="M45.988,46.832 C42.373,43.453 40.566,39.004 40.566,33.486 C40.566,27.969 42.363,23.553 45.955,20.238 C49.549,16.923 53.996,15.265 59.301,15.265 C64.604,15.265 69.042,16.923 72.614,20.238 C76.185,23.553 77.971,27.969 77.971,33.486 C77.971,39.004 76.195,43.453 72.646,46.832 C69.096,50.211 64.668,51.9 59.365,51.9 C54.06,51.9 49.601,50.211 45.988,46.832 L45.988,46.832 Z M64.626,40.223 C66.08,38.684 66.808,36.46 66.808,33.551 C66.808,30.643 66.059,28.429 64.563,26.91 C63.064,25.393 61.29,24.632 59.236,24.632 C57.184,24.632 55.42,25.393 53.943,26.91 C52.468,28.429 51.731,30.643 51.731,33.551 C51.731,36.46 52.489,38.684 54.008,40.223 C55.525,41.763 57.312,42.533 59.365,42.533 C61.418,42.533 63.172,41.763 64.626,40.223 L64.626,40.223 Z" id="Fill-2" fill="#211914"></path>
                        <path d="M96,15.65 L96,22.323 C98.566,17.618 101.988,15.265 106.266,15.265 L106.266,26.429 L103.57,26.429 C101.047,26.429 99.154,27.028 97.893,28.226 C96.631,29.423 96,31.52 96,34.513 L96,51.451 L85.029,51.451 L85.029,15.65 L96,15.65" id="Fill-3" fill="#211914"></path>
                        <path d="M127.437,42.147 L131.351,42.147 L131.351,51.451 L125.77,51.451 C121.749,51.451 118.637,50.565 116.436,48.788 C114.231,47.014 113.131,43.967 113.131,39.646 L113.131,24.761 L109.795,24.761 L109.795,15.65 L113.131,15.65 L113.131,6.924 L124.102,6.924 L124.102,15.65 L131.287,15.65 L131.287,24.761 L124.102,24.761 L124.102,39.646 C124.102,41.314 125.214,42.147 127.437,42.147" id="Fill-4" fill="#211914"></path>
                        <path d="M140.975,46.768 C137.809,43.346 136.227,38.962 136.227,33.615 C136.227,28.269 137.809,23.873 140.975,20.43 C144.141,16.987 148,15.265 152.557,15.265 C157.111,15.265 160.607,16.956 163.046,20.334 L163.046,15.65 L174.018,15.65 L174.018,51.451 L163.046,51.451 L163.046,46.254 C160.394,50.019 156.844,51.9 152.396,51.9 C147.946,51.9 144.141,50.19 140.975,46.768 L140.975,46.768 Z M160.672,40.095 C162.254,38.555 163.046,36.374 163.046,33.551 C163.046,30.727 162.254,28.557 160.672,27.039 C159.09,25.521 157.271,24.761 155.219,24.761 C153.166,24.761 151.347,25.531 149.766,27.07 C148.182,28.61 147.391,30.792 147.391,33.615 C147.391,36.438 148.182,38.609 149.766,40.127 C151.347,41.646 153.166,42.405 155.219,42.405 C157.271,42.405 159.09,41.635 160.672,40.095 L160.672,40.095 Z" id="Fill-5" fill="#211914"></path>
                        <path d="M181.074,3.973 L192.046,3.973 L192.046,51.451 L181.074,51.451 L181.074,3.973 Z" id="Fill-6" fill="#211914"></path>
                        <path d="M209.113,11.608 C207.872,12.849 206.353,13.469 204.558,13.469 C202.761,13.469 201.242,12.849 200.002,11.608 C198.761,10.368 198.142,8.839 198.142,7.02 C198.142,5.203 198.761,3.674 200.002,2.433 C201.242,1.193 202.761,0.573 204.558,0.573 C206.353,0.573 207.872,1.193 209.113,2.433 C210.353,3.674 210.974,5.203 210.974,7.02 C210.974,8.839 210.353,10.368 209.113,11.608 L209.113,11.608 Z M199.103,15.65 L210.075,15.65 L210.075,51.451 L199.103,51.451 L199.103,15.65 Z" id="Fill-7" fill="#211914"></path>
                        <path d="M215.144,15.65 L226.82,15.65 L234.969,42.276 L243.117,15.65 L254.794,15.65 L242.091,51.451 L227.847,51.451 L215.144,15.65" id="Fill-8" fill="#211914"></path>
                        <path d="M269.55,15.65 L269.55,22.323 C272.116,17.618 275.538,15.265 279.815,15.265 L279.815,26.429 L277.121,26.429 C274.597,26.429 272.704,27.028 271.442,28.226 C270.181,29.423 269.55,31.52 269.55,34.513 L269.55,51.451 L258.578,51.451 L258.578,15.65 L269.55,15.65" id="Fill-9" fill="#211914"></path>
                        <path d="M299.705,51.9 C294.486,51.9 290.21,50.222 286.873,46.863 C283.537,43.507 281.869,39.047 281.869,33.486 C281.869,27.927 283.526,23.5 286.841,20.206 C290.155,16.912 294.444,15.265 299.705,15.265 C304.967,15.265 309.329,16.891 312.794,20.141 C316.259,23.393 317.991,27.905 317.991,33.679 C317.991,34.92 317.904,36.075 317.734,37.144 L293.097,37.144 C293.31,38.727 294.017,40.02 295.214,41.025 C296.411,42.03 297.705,42.533 299.096,42.533 C300.485,42.533 301.523,42.395 302.207,42.116 C302.891,41.838 303.394,41.56 303.715,41.282 C304.036,41.004 304.453,40.544 304.967,39.902 L316.836,39.902 C315.81,43.495 313.756,46.394 310.677,48.596 C307.597,50.8 303.939,51.9 299.705,51.9 L299.705,51.9 Z M304.389,26.205 C303.105,25.157 301.587,24.632 299.834,24.632 C298.079,24.632 296.603,25.157 295.406,26.205 C294.209,27.253 293.46,28.61 293.161,30.278 L306.57,30.278 C306.398,28.61 305.672,27.253 304.389,26.205 L304.389,26.205 Z" id="Fill-10" fill="#211914"></path>
                        <path d="M329.731,3.91 L329.731,68.469 L353.344,53.435 L376.956,68.469 L376.956,3.91 L329.731,3.91 L329.731,3.91 Z M354.456,40.891 L354.456,46.235 C354.456,46.85 353.958,47.348 353.344,47.348 C352.729,47.348 352.231,46.85 352.231,46.235 L352.231,40.891 C347.503,40.339 343.831,36.326 343.831,31.449 C343.831,26.195 353.343,9.706 353.343,9.706 C353.343,9.706 362.856,26.195 362.856,31.449 C362.856,36.325 359.185,40.339 354.456,40.891 L354.456,40.891 Z" id="Fill-11" fill="#16663B"></path>
                    </g>
                </g>
            </g>
        </g>
    </g>
</svg>