<?xml version="1.0" encoding="UTF-8" standalone="no"?>
<svg width="15px" height="48px" viewBox="0 0 15 48" version="1.1" xmlns="http://www.w3.org/2000/svg" xmlns:xlink="http://www.w3.org/1999/xlink">
    <!-- Generator: sketchtool 3.6.1 (26313) - http://www.bohemiancoding.com/sketch -->
    <title>1A8FC4B9-047C-4D93-BAD7-3E6164084B18</title>
    <desc>Created with sketchtool.</desc>
    <defs></defs>
    <g id="wecare" stroke="none" stroke-width="1" fill="none" fill-rule="evenodd">
        <g id="mobile_inicial" transform="translate(-152.000000, -331.000000)" stroke="#16663B" fill="#16663B">
            <g id="Group-2" transform="translate(152.000000, 331.000000)">
                <path d="M8.02616302,45.6236811 L8.02616302,1.10394125 C8.02616302,0.80982381 7.78745901,0.571119798 7.49334156,0.571119798 C7.19922412,0.571119798 6.96052011,0.80982381 6.96052011,1.10394125 L6.96052011,45.6123143 L1.66285399,40.3672199 C1.45469841,40.1590643 1.11582396,40.161906 0.909089238,40.370772 C0.703064942,40.5789276 0.704485799,40.9163812 0.914062238,41.1238263 L7.12462912,47.2740068 C7.22764126,47.3777293 7.36333313,47.4288802 7.49902499,47.4288802 C7.63400643,47.4288802 7.76969829,47.3777293 7.87342087,47.2740068 L14.086119,41.1238263 C14.2956955,40.9170916 14.2971163,40.5789276 14.0896712,40.370772 C13.8829364,40.161906 13.5447724,40.1590643 13.3366169,40.3672199 L8.02616302,45.6236811 Z" id="Path-Copy"></path>
            </g>
        </g>
    </g>
</svg>