<?xml version="1.0" encoding="UTF-8" standalone="no"?>
<svg width="161px" height="50px" viewBox="0 0 161 50" version="1.1" xmlns="http://www.w3.org/2000/svg" xmlns:xlink="http://www.w3.org/1999/xlink">
    <!-- Generator: sketchtool 3.6.1 (26313) - http://www.bohemiancoding.com/sketch -->
    <title>D31EBEB0-A26E-41EA-A217-A34933178D6A</title>
    <desc>Created with sketchtool.</desc>
    <defs></defs>
    <g id="wecare" stroke="none" stroke-width="1" fill="none" fill-rule="evenodd">
        <g id="desktop_ui_kit" transform="translate(-1778.000000, -558.000000)">
            <g id="apple-copy" transform="translate(1778.000000, 558.000000)">
                <rect id="bg" fill="#16663B" x="0.167675446" y="0" width="160" height="49.4791667" rx="40"></rect>
                <g id="app-store-+-apple-+-Disponível-na" transform="translate(17.125151, 6.770833)" fill="#EBEBEB">
                    <path d="M46.3230764,29.4054167 L43.7980399,29.4054167 L42.4148847,25.1299479 L37.6071973,25.1299479 L36.2896419,29.4054167 L33.831317,29.4054167 L38.5945299,14.8497917 L41.5365144,14.8497917 L46.3230764,29.4054167 L46.3230764,29.4054167 Z M41.9979367,23.3361979 L40.747093,19.5354167 C40.6147815,19.1471354 40.3668365,18.2327604 40.0010342,16.7933854 L39.9565598,16.7933854 C39.810906,17.4124479 39.5763033,18.3268229 39.2538636,19.5354167 L38.0252571,23.3361979 L41.9979367,23.3361979 Z M58.5724501,24.0285417 C58.5724501,25.8135417 58.0821194,27.2244792 57.1014579,28.2602604 C56.2230876,29.1822917 55.1323519,29.6427604 53.8303625,29.6427604 C52.4249701,29.6427604 51.4154002,29.1461979 50.800541,28.1530729 L50.7560666,28.1530729 L50.7560666,33.6819792 L48.3855787,33.6819792 L48.3855787,22.3649479 C48.3855787,21.2427604 48.3555585,20.0910417 48.2977417,18.9097917 L50.3824813,18.9097917 L50.5147927,20.5733854 L50.5592672,20.5733854 C51.3498004,19.3199479 52.5494985,18.6943229 54.1594734,18.6943229 C55.4181002,18.6943229 56.4688089,19.1832292 57.3093759,20.1621354 C58.1521666,21.1421354 58.5724501,22.4305729 58.5724501,24.0285417 Z M56.1574878,24.1138542 C56.1574878,23.0922917 55.923997,22.2501042 55.4547916,21.5872917 C54.9422236,20.8960417 54.2539816,20.5504167 53.3911774,20.5504167 C52.8063385,20.5504167 52.2748689,20.7429167 51.8001042,21.1224479 C51.3242276,21.5052604 51.0129065,22.0051042 50.8672527,22.6241667 C50.7938699,22.9129167 50.7571785,23.1491667 50.7571785,23.3351042 L50.7571785,25.0851042 C50.7571785,25.8485417 50.9951167,26.4927604 51.4709933,27.0188542 C51.9468698,27.5449479 52.5650646,27.8074479 53.3255776,27.8074479 C54.2184021,27.8074479 54.9133152,27.4683854 55.4103171,26.7924479 C55.9084309,26.1154167 56.1574878,25.2229167 56.1574878,24.1138542 Z M70.844061,24.0285417 C70.844061,25.8135417 70.3537303,27.2244792 69.3719569,28.2602604 C68.4946985,29.1822917 67.4039628,29.6427604 66.1019734,29.6427604 C64.696581,29.6427604 63.6870111,29.1461979 63.0732638,28.1530729 L63.0287894,28.1530729 L63.0287894,33.6819792 L60.6583015,33.6819792 L60.6583015,22.3649479 C60.6583015,21.2427604 60.6282813,20.0910417 60.5704645,18.9097917 L62.655204,18.9097917 L62.7875155,20.5733854 L62.83199,20.5733854 C63.6214113,19.3199479 64.8211095,18.6943229 66.4321962,18.6943229 C67.6897111,18.6943229 68.7404198,19.1832292 69.5832105,20.1621354 C70.4226657,21.1421354 70.844061,22.4305729 70.844061,24.0285417 Z M68.4290987,24.1138542 C68.4290987,23.0922917 68.194496,22.2501042 67.7252906,21.5872917 C67.2127227,20.8960417 66.5267044,20.5504167 65.6627883,20.5504167 C65.0768375,20.5504167 64.5464798,20.7429167 64.0706032,21.1224479 C63.5947267,21.5052604 63.2845174,22.0051042 63.1388636,22.6241667 C63.0665927,22.9129167 63.0287894,23.1491667 63.0287894,23.3351042 L63.0287894,25.0851042 C63.0287894,25.8485417 63.2667276,26.4927604 63.7403805,27.0188542 C64.216257,27.5438542 64.8344518,27.8074479 65.5971885,27.8074479 C66.490013,27.8074479 67.1849262,27.4683854 67.6819281,26.7924479 C68.1800418,26.1154167 68.4290987,25.2229167 68.4290987,24.1138542 Z M84.5644269,25.3235417 C84.5644269,26.5616667 84.1274655,27.5690104 83.2502071,28.3466667 C82.2862236,29.1965104 80.9442072,29.6208854 79.2197107,29.6208854 C77.6275256,29.6208854 76.351109,29.3190104 75.3849017,28.7141667 L75.9341611,26.7705729 C76.9748631,27.3896354 78.1167444,27.7002604 79.360917,27.7002604 C80.2537415,27.7002604 80.9486547,27.5011979 81.4478803,27.1052604 C81.9448822,26.7093229 82.1928272,26.1777604 82.1928272,25.5149479 C82.1928272,24.9243229 81.9882448,24.4266667 81.577968,24.0230729 C81.169915,23.6194792 80.4883442,23.2443229 79.5365911,22.8976042 C76.9459547,21.9471354 75.6517484,20.5547917 75.6517484,18.7238542 C75.6517484,17.5272917 76.1053877,16.5461979 77.0137782,15.7827604 C77.9188332,15.0182292 79.1263143,14.6365104 80.6362217,14.6365104 C81.9826855,14.6365104 83.1012177,14.8672917 83.9940422,15.3277604 L83.4014202,17.2286979 C82.5675244,16.7824479 81.6246662,16.5593229 80.56951,16.5593229 C79.7356142,16.5593229 79.0840636,16.7616667 78.6170819,17.1641667 C78.2223712,17.5240104 78.02446,17.9626042 78.02446,18.4821354 C78.02446,19.0574479 78.2501678,19.5332292 78.7038071,19.9072917 C79.0985178,20.2529167 79.8156682,20.6269792 80.8563702,21.0305729 C82.1294511,21.5347917 83.0645263,22.1243229 83.6660432,22.8002604 C84.2653363,23.4740104 84.5644269,24.3172917 84.5644269,25.3235417 Z M92.4019358,20.6597917 L89.7890622,20.6597917 L89.7890622,25.7555729 C89.7890622,27.0516667 90.2493727,27.6991667 91.1722174,27.6991667 C91.5958365,27.6991667 91.9471846,27.6630729 92.2251499,27.5908854 L92.2907497,29.3616667 C91.823768,29.5333854 91.2089088,29.6197917 90.447284,29.6197917 C89.511097,29.6197917 88.7794924,29.3386979 88.2513583,28.7776042 C87.725448,28.2154167 87.4608251,27.2726042 87.4608251,25.9480729 L87.4608251,20.6576042 L85.9042196,20.6576042 L85.9042196,18.9076042 L87.4608251,18.9076042 L87.4608251,16.9858854 L89.7890622,16.2946354 L89.7890622,18.9076042 L92.4019358,18.9076042 L92.4019358,20.6597917 Z M104.190999,24.0711979 C104.190999,25.6844792 103.721794,27.0090104 102.785607,28.0447917 C101.803833,29.1111979 100.500732,29.6427604 98.876303,29.6427604 C97.3108025,29.6427604 96.0644063,29.1319792 95.1348904,28.1104167 C94.2053745,27.0888542 93.7406166,25.7993229 93.7406166,24.2451042 C93.7406166,22.6186979 94.2187168,21.2865104 95.178253,20.2507292 C96.1355654,19.2138542 97.427548,18.6954167 99.051977,18.6954167 C100.617477,18.6954167 101.877216,19.2061979 102.827857,20.2288542 C103.73736,21.2208854 104.190999,22.5016667 104.190999,24.0711979 Z M101.731562,24.1466667 C101.731562,23.1786979 101.521421,22.3485417 101.095578,21.6561979 C100.598576,20.8183854 99.8880966,20.4005729 98.9674756,20.4005729 C98.0146106,20.4005729 97.290789,20.8194792 96.7937871,21.6561979 C96.3679443,22.3496354 96.1578026,23.1929167 96.1578026,24.1904167 C96.1578026,25.1583854 96.3679443,25.9885417 96.7937871,26.6797917 C97.3063551,27.5176042 98.0223936,27.9354167 98.9463502,27.9354167 C99.8514051,27.9354167 100.561884,27.5088542 101.074452,26.6579167 C101.511414,25.9524479 101.731562,25.1135417 101.731562,24.1466667 Z M111.896196,20.9605729 C111.661594,20.9179167 111.411425,20.8960417 111.149026,20.8960417 C110.31513,20.8960417 109.67025,21.2055729 109.216611,21.8257292 C108.8219,22.3726042 108.623989,23.0638542 108.623989,23.8983854 L108.623989,29.4054167 L106.254613,29.4054167 L106.27685,22.2151042 C106.27685,21.0054167 106.24683,19.9040104 106.187902,18.9108854 L108.252628,18.9108854 L108.339353,20.9190104 L108.404953,20.9190104 C108.655121,20.2288542 109.049832,19.6732292 109.590196,19.2565104 C110.118331,18.8813542 110.688715,18.6943229 111.303574,18.6943229 C111.522611,18.6943229 111.720522,18.7096354 111.896196,18.7369792 L111.896196,20.9605729 Z M122.497792,23.6610417 C122.497792,24.0788542 122.469995,24.4310417 122.411067,24.7186979 L115.299603,24.7186979 C115.3274,25.7555729 115.670965,26.5485417 116.33141,27.0954167 C116.930703,27.5843229 117.705671,27.8293229 118.657424,27.8293229 C119.710356,27.8293229 120.671004,27.6641667 121.53492,27.3327604 L121.906282,28.9515104 C120.896712,29.3846354 119.704797,29.6001042 118.329425,29.6001042 C116.674975,29.6001042 115.376322,29.1210417 114.43124,28.1640104 C113.488381,27.2069792 113.015841,25.9218229 113.015841,24.3096354 C113.015841,22.7269792 113.455026,21.4090104 114.334508,20.3579167 C115.255129,19.2357292 116.499301,18.6746354 118.064802,18.6746354 C119.602506,18.6746354 120.766624,19.2357292 121.557157,20.3579167 C122.183135,21.2493229 122.497792,22.3518229 122.497792,23.6610417 Z M120.237378,23.0561979 C120.252944,22.3649479 120.098396,21.7677604 119.777068,21.2635417 C119.366791,20.6149479 118.736366,20.2911979 117.888016,20.2911979 C117.113049,20.2911979 116.482623,20.6072917 116.001188,21.2416667 C115.606477,21.7458854 115.371874,22.3507292 115.299603,23.0551042 L120.237378,23.0551042 L120.237378,23.0561979 Z" id="app-store"></path>
                    <path d="M19.8594518,17.0401532 C19.8269325,13.4869852 22.8187088,11.7583574 22.9555142,11.6778791 C21.2611461,9.24920117 18.6349316,8.91736637 17.7120561,8.89090778 C15.5063499,8.66270245 13.3668037,10.1884811 12.2432056,10.1884811 C11.0971803,10.1884811 9.36692885,8.9129566 7.50211474,8.9504396 C5.10241408,8.98682016 2.85746047,10.3527448 1.62621218,12.4738417 C-0.914779267,16.7987185 0.980311443,23.1542921 3.41477412,26.6501332 C4.63256614,28.3622244 6.05556621,30.2738574 7.91813761,30.2066085 C9.74034022,30.1327449 10.421003,29.0644794 12.619981,29.0644794 C14.7987746,29.0644794 15.4379473,30.2066085 17.3375234,30.1636133 C19.2931673,30.1327449 20.5244156,28.443805 21.6995961,26.7162796 C23.1068972,24.7539343 23.6720603,22.8213549 23.6944874,22.7221351 C23.6485119,22.706701 19.8964565,21.2988835 19.8594518,17.0401532 Z M16.2711144,6.59121542 C17.251179,5.38624719 17.9217496,3.74691711 17.7356046,2.08333333 C16.3170899,2.14507004 14.5431056,3.04796939 13.5215508,4.22647904 C12.6177383,5.26497865 11.8103624,6.96714787 12.0189345,8.5678925 C13.6123806,8.68475127 15.2484382,7.77744216 16.2711144,6.59121542 Z" id="apple"></path>
                    <text id="Em-breve-na" font-family="HelveticaNeue-Medium, Helvetica Neue" font-size="9.375" font-weight="400">
                        <tspan x="37.6136068" y="9.390625">Em breve na</tspan>
                    </text>
                </g>
            </g>
        </g>
    </g>
</svg>