<?xml version="1.0" encoding="utf-8"?>
<!-- Generator: Adobe Illustrator 17.0.0, SVG Export Plug-In . SVG Version: 6.00 Build 0)  -->
<!DOCTYPE svg PUBLIC "-//W3C//DTD SVG 1.1//EN" "http://www.w3.org/Graphics/SVG/1.1/DTD/svg11.dtd">
<svg version="1.1" id="Layer_1" xmlns="http://www.w3.org/2000/svg" xmlns:xlink="http://www.w3.org/1999/xlink" x="0px" y="0px"
	 width="162px" height="51px" viewBox="0 0 162 51" enable-background="new 0 0 162 51" xml:space="preserve">
<title>C6AD4ED8-174D-4BF7-A93D-410AC4667C97</title>
<desc>Created with sketchtool.</desc>
<g id="wecare">
	<g id="_x30_01-desk-home" transform="translate(-334.000000, -970.000000)">
		<g id="chamada-copy-_x2B_-google-play-_x2B_-apple" transform="translate(150.000000, 763.000000)">
			<g id="google-play_1_" transform="translate(183.930733, 207.000000)">
				<path id="bg" fill="#EBEBEB" d="M40.095,0.531h81c22.091,0,40,11.076,40,24.74l0,0c0,13.663-17.909,24.74-40,24.74h-81
					c-22.091,0-40-11.076-40-24.74l0,0C0.095,11.608,18.004,0.531,40.095,0.531z"/>
				<g id="google-play-_x2B_-logotype-_x2B_-Disponível-na-Copy" transform="translate(16.595382, 6.770833)">
					<g id="google-play" transform="translate(0.489367, 12.564490)">
						<path id="left" fill="#16663B" d="M0.928,0.851C0.51,0.981,0.24,1.4,0.24,2.035l0.003,19.971c0,0.628,0.262,1.041,0.668,1.178
							l11.272-11.176L0.928,0.851"/>
						<path id="bottom" fill="#16663B" d="M0.911,23.185c0.292,0.098,0.659,0.052,1.058-0.165l13.755-7.5l-3.542-3.511L0.911,23.185
							"/>
						<path id="right" fill="#16663B" d="M15.726,15.52l4.69-2.557c0.951-0.52,0.951-1.367,0-1.886l-4.708-2.566l-3.526,3.496
							L15.726,15.52"/>
						<path id="top" fill="#16663B" d="M15.708,8.511L1.969,1.022c-0.39-0.211-0.749-0.26-1.04-0.17l11.254,11.156L15.708,8.511"/>
					</g>
					<path id="logotype" fill="#16663B" d="M40.816,29.459l-2.913,0.661c-1.18,0.184-2.24,0.347-3.363,0.347
						c-5.619,0-7.76-4.1-7.76-7.31c0-3.919,3.033-7.553,8.229-7.553c1.099,0,2.156,0.16,3.12,0.421
						c1.527,0.425,2.241,0.949,2.687,1.256l-1.692,1.593l-0.713,0.158l0.509-0.804c-0.689-0.667-1.956-1.899-4.359-1.899
						c-3.214,0-5.638,2.422-5.638,5.958c0,3.798,2.768,7.37,7.208,7.37c1.305,0,1.976-0.26,2.586-0.502v-3.256l-3.076,0.164
						l1.63-0.868h4.317l-0.528,0.504c-0.142,0.12-0.162,0.161-0.202,0.322c-0.021,0.184-0.041,0.769-0.041,0.974V29.459z
						 M47.497,30.207c-3.455,0-5.299-2.667-5.299-5.081c0-2.821,2.324-5.235,5.627-5.235c3.193,0,5.191,2.48,5.191,5.083
						C53.016,27.517,51.041,30.207,47.497,30.207z M50.215,28.464c0.522-0.689,0.652-1.55,0.652-2.389
						c0-1.897-0.914-5.516-3.607-5.516c-0.719,0-1.433,0.278-1.955,0.731c-0.85,0.754-1.001,1.701-1.001,2.631
						c0,2.128,1.066,5.639,3.695,5.639C48.847,29.56,49.713,29.152,50.215,28.464z M59.061,30.207c-3.454,0-5.302-2.667-5.302-5.081
						c0-2.821,2.323-5.235,5.628-5.235c3.194,0,5.195,2.48,5.195,5.083C64.582,27.517,62.604,30.207,59.061,30.207z M61.778,28.464
						c0.525-0.689,0.653-1.55,0.653-2.389c0-1.897-0.912-5.516-3.607-5.516c-0.717,0-1.439,0.278-1.959,0.731
						c-0.849,0.754-1,1.701-1,2.631c0,2.128,1.061,5.639,3.695,5.639C60.41,29.56,61.278,29.152,61.778,28.464z M72.533,20.948
						c0.499,0.407,1.54,1.27,1.54,2.907c0,1.595-0.907,2.347-1.822,3.059c-0.281,0.28-0.609,0.584-0.609,1.054
						c0,0.477,0.328,0.735,0.565,0.928l0.785,0.601c0.954,0.799,1.824,1.531,1.824,3.018c0,2.026-1.978,4.07-5.716,4.07
						c-3.149,0-4.671-1.487-4.671-3.081c0-0.776,0.39-1.874,1.675-2.627c1.347-0.817,3.172-0.926,4.149-0.99
						c-0.305-0.391-0.654-0.8-0.654-1.468c0-0.365,0.111-0.583,0.218-0.839c-0.238,0.022-0.477,0.045-0.695,0.045
						c-2.305,0-3.607-1.705-3.607-3.384c0-0.991,0.456-2.09,1.392-2.887c1.239-1.011,2.716-1.185,3.89-1.185h4.478l-1.392,0.779
						H72.533z M70.993,30.512c-0.178-0.023-0.285-0.023-0.5-0.023c-0.197,0-1.371,0.042-2.28,0.345
						c-0.481,0.174-1.871,0.689-1.871,2.22c0,1.527,1.501,2.628,3.823,2.628c2.086,0,3.194-0.991,3.194-2.326
						C73.358,32.257,72.642,31.677,70.993,30.512z M71.618,26.419c0.502-0.497,0.546-1.184,0.546-1.574
						c0-1.549-0.932-3.962-2.738-3.962c-0.563,0-1.174,0.28-1.52,0.714c-0.368,0.449-0.478,1.031-0.478,1.591
						c0,1.443,0.849,3.835,2.715,3.835C70.688,27.022,71.274,26.759,71.618,26.419z M78.472,28.315c0,0.837,0.151,0.967,0.865,1.033
						c0.372,0.043,0.743,0.063,1.11,0.106l-0.804,0.474h-3.829c0.502-0.646,0.589-0.711,0.589-1.141v-0.481l-0.008-12.809h-1.691
						l1.628-0.778h3.108c-0.674,0.387-0.875,0.622-0.961,1.376L78.472,28.315z M89.152,28.482l-1.039,0.972
						c-0.24,0.131-0.479,0.283-0.717,0.391c-0.722,0.325-1.456,0.407-2.108,0.407c-0.694,0-1.782-0.045-2.892-0.841
						c-1.542-1.077-2.216-2.928-2.216-4.542c0-3.34,2.742-4.978,4.979-4.978c0.782,0,1.585,0.194,2.238,0.603
						c1.086,0.712,1.366,1.637,1.522,2.132l-5.108,2.046l-1.673,0.129c0.542,2.739,2.41,4.331,4.475,4.331
						c1.032,0,1.797-0.334,2.5-0.678C89.112,28.455,89.253,28.382,89.152,28.482z M86.07,23.034c0.415-0.149,0.63-0.278,0.63-0.578
						c0-0.861-0.982-1.855-2.154-1.855c-0.868,0-2.498,0.67-2.498,2.998c0,0.363,0.044,0.75,0.066,1.137L86.07,23.034z
						 M95.415,28.574v5.487h-1.099V20.098h1.099v1.59c0.716-1.028,2.024-1.842,3.544-1.842c2.726,0,4.561,2.05,4.561,5.295
						c0,3.223-1.836,5.316-4.561,5.316C97.525,30.457,96.24,29.723,95.415,28.574z M102.34,25.141c0-2.446-1.286-4.311-3.566-4.311
						c-1.416,0-2.77,1.103-3.359,2.065v4.469c0.589,0.964,1.943,2.107,3.359,2.107C101.054,29.472,102.34,27.591,102.34,25.141z
						 M105.022,16.243h1.099v13.962h-1.099V16.243z M115.244,30.175c-0.073-0.35-0.129-0.659-0.169-0.917
						c-0.033-0.257-0.053-0.52-0.053-0.788c-0.377,0.548-0.91,1.005-1.592,1.364c-0.683,0.362-1.331,0.539-2.22,0.539
						c-1.071,0-1.902-0.261-2.495-0.791c-0.591-0.529-0.889-1.246-0.889-2.153c0-0.906,0.431-1.641,1.29-2.204
						c0.859-0.565,1.969-0.846,3.343-0.846h2.563v-1.256c0-0.723-0.249-1.292-0.745-1.705c-0.498-0.413-1.198-0.622-2.104-0.622
						c-0.829,0-1.501,0.191-2.013,0.562c-0.507,0.379-0.763,0.849-0.763,1.415h-1.125l-0.023-0.054
						c-0.041-0.764,0.312-1.433,1.061-2.012c0.746-0.578,1.722-0.868,2.925-0.868c1.198,0,2.168,0.286,2.899,0.857
						c0.73,0.565,1.097,1.381,1.097,2.449v4.986c0,0.358,0.017,0.704,0.062,1.041c0.046,0.338,0.12,0.675,0.219,1.001H115.244z
						 M111.343,29.381c0.934,0,1.605-0.207,2.29-0.616c0.681-0.407,1.145-0.937,1.388-1.579v-1.941h-2.576
						c-0.984,0-1.798,0.216-2.439,0.651c-0.642,0.434-0.967,0.96-0.967,1.57c0,0.576,0.206,1.037,0.616,1.387
						C110.066,29.206,110.627,29.381,111.343,29.381z M118.454,33.158c0.235,0.104,0.636,0.168,0.891,0.168
						c0.672,0,1.14-0.273,1.561-1.235l0.802-1.801l-4.33-10.191h1.226l3.714,8.832l3.678-8.832h1.243l-5.281,12.33
						c-0.548,1.27-1.41,1.881-2.594,1.881c-0.355,0-0.824-0.063-1.099-0.146L118.454,33.158z"/>
					<text transform="matrix(1 0 0 1 29.1373 9)" fill="#16663B" font-family="'HelveticaNeue-Medium'" font-size="9.375">Download na</text>
				</g>
			</g>
		</g>
	</g>
</g>
</svg>
