<?xml version="1.0" encoding="UTF-8" standalone="no"?>
<svg width="69px" height="69px" viewBox="0 0 69 69" version="1.1" xmlns="http://www.w3.org/2000/svg" xmlns:xlink="http://www.w3.org/1999/xlink" xmlns:sketch="http://www.bohemiancoding.com/sketch/ns">
    <!-- Generator: bin/sketchtool 1.4 (305) - http://www.bohemiancoding.com/sketch -->
    <title>feira_hover</title>
    <desc>Created with bin/sketchtool.</desc>
    <defs></defs>
    <g id="wecare" stroke="none" stroke-width="1" fill="none" fill-rule="evenodd" sketch:type="MSPage">
        <g id="09.Desktop_UIKIT" sketch:type="MSArtboardGroup" transform="translate(-1154.000000, -123.000000)">
            <g id="campo" sketch:type="MSLayerGroup" transform="translate(993.000000, 120.000000)">
                <g id="filtro-+-filtro-copy" transform="translate(63.000000, 0.000000)" sketch:type="MSShapeGroup">
                    <g id="feira_hover" transform="translate(98.000000, 3.000000)">
                        <ellipse id="Oval-3-Copy" fill="#16663B" cx="34.0614277" cy="34.4749985" rx="34.0614277" ry="34.4749985"></ellipse>
                        <path d="M41.8267879,22 L25.6831515,22 C23.3155758,22 21.357697,23.7944 21.0472727,26.1136 C21.0464848,26.116 21.0464848,26.1192 21.0464848,26.1216 C21.0189091,26.3296 21,26.54 21,26.7552 L21,44.2672 C21,44.9304 21.5286667,45.4672 22.1818182,45.4672 C22.1983636,45.4672 22.2141212,45.4632 22.2298788,45.4624 C22.2369697,45.4632 22.2432727,45.4672 22.2503636,45.4672 L45.2706061,45.4672 C45.2769091,45.4672 45.2824242,45.4632 45.2879394,45.4632 C45.3013333,45.464 45.3147273,45.4672 45.3281212,45.4672 C45.9804848,45.4672 46.5099394,44.9304 46.5099394,44.2672 L46.5099394,26.7552 C46.5099394,24.1328 44.4086667,22 41.8267879,22 L41.8267879,22 Z M36.4384848,29.9128 C36.4384848,31.4088 35.2401212,32.6264 33.7667879,32.6264 C32.2926667,32.6264 31.094303,31.4088 31.094303,29.9128 L31.094303,24.4 L36.4384848,24.4 L36.4384848,29.9128 L36.4384848,29.9128 Z M23.3864848,26.5232 C23.5030909,25.3344 24.4824242,24.4 25.6831515,24.4 L28.7306667,24.4 L28.7306667,29.9128 C28.7306667,31.4088 27.532303,32.6264 26.0581818,32.6264 C24.5848485,32.6264 23.3864848,31.4088 23.3864848,29.9128 L23.3864848,26.5232 L23.3864848,26.5232 Z M44.146303,39.3248 L23.3636364,39.3248 L23.3636364,34.2248 C24.1436364,34.7296 25.0670303,35.0264 26.0581818,35.0264 C27.604,35.0264 28.988303,34.3144 29.9124848,33.1976 C30.8366667,34.3144 32.2209697,35.0264 33.7667879,35.0264 C35.3118182,35.0264 36.6961212,34.3144 37.620303,33.1976 C38.5444848,34.3144 39.9287879,35.0264 41.4746061,35.0264 C42.456303,35.0264 43.3710303,34.7344 44.146303,34.2392 L44.146303,39.3248 L44.146303,39.3248 Z M44.146303,27.38 L44.146303,29.9128 C44.146303,31.4088 42.9479394,32.6264 41.4746061,32.6264 C40.0012727,32.6264 38.8021212,31.4088 38.8021212,29.9128 L38.8021212,24.4 L41.8267879,24.4 C43.1055152,24.4 44.146303,25.4568 44.146303,26.7552 L44.146303,27.38 L44.146303,27.38 Z" id="Imported-Layers" fill="#FFFFFF"></path>
                    </g>
                </g>
            </g>
        </g>
    </g>
</svg>