<?xml version="1.0" encoding="UTF-8" standalone="no"?>
<svg width="165px" height="43px" viewBox="0 0 165 43" version="1.1" xmlns="http://www.w3.org/2000/svg" xmlns:xlink="http://www.w3.org/1999/xlink" xmlns:sketch="http://www.bohemiancoding.com/sketch/ns">
    <!-- Generator: bin/sketchtool 1.4 (305) - http://www.bohemiancoding.com/sketch -->
    <title>facebook_hover</title>
    <desc>Created with bin/sketchtool.</desc>
    <defs></defs>
    <g id="wecare" stroke="none" stroke-width="1" fill="none" fill-rule="evenodd" sketch:type="MSPage">
        <g id="09.Desktop_UIKIT" sketch:type="MSArtboardGroup" transform="translate(-993.000000, -565.000000)">
            <g id="facebook_hover" sketch:type="MSLayerGroup" transform="translate(993.000000, 565.000000)">
                <rect id="Rectangle-28" fill="#395185" sketch:type="MSShapeGroup" x="0" y="0" width="165" height="43" rx="40"></rect>
                <g id="entrar-com-o-faceboo-+-Imported-Layers" transform="translate(21.000000, 10.000000)" fill="#FFFFFF">
                    <text id="com-facebook" sketch:type="MSTextLayer" font-family="Poppins" font-size="14" font-weight="bold" sketch:alignment="middle">
                        <tspan x="16.58" y="16">com facebook</tspan>
                    </text>
                    <path d="M7.13748612,20.4228658 L7.13748612,11.8201706 L10.0775709,11.8201706 L10.5176556,8.46748751 L7.13748612,8.46748751 L7.13748612,6.3269475 C7.13748612,5.3562675 7.4118929,4.69480343 8.82918104,4.69480343 L10.6368082,4.69397109 L10.6368082,1.69536727 C10.3240115,1.6545824 9.25113019,1.56327422 8.00274036,1.56327422 C5.39663866,1.56327422 3.61240138,3.12566783 3.61240138,5.99500857 L3.61240138,8.46748751 L0.664859002,8.46748751 L0.664859002,11.8201706 L3.61240138,11.8201706 L3.61240138,20.4228658 L7.13748612,20.4228658" id="Imported-Layers" sketch:type="MSShapeGroup"></path>
                </g>
            </g>
        </g>
    </g>
</svg>