<?xml version="1.0" encoding="UTF-8" standalone="no"?>
<svg width="27px" height="19px" viewBox="0 0 27 19" version="1.1" xmlns="http://www.w3.org/2000/svg" xmlns:xlink="http://www.w3.org/1999/xlink">
    <!-- Generator: sketchtool 3.6.1 (26313) - http://www.bohemiancoding.com/sketch -->
    <title>CF6E45D8-3D05-42AE-BDE7-3CEB902BB69F</title>
    <desc>Created with sketchtool.</desc>
    <defs></defs>
    <g id="wecare" stroke="none" stroke-width="1" fill="none" fill-rule="evenodd">
        <g id="003-desk-login" transform="translate(-854.000000, -601.000000)" fill="#CCCCCC">
            <g id="Group" transform="translate(540.000000, 154.000000)">
                <g id="Password-Copy" transform="translate(0.500000, 435.000000)">
                    <g id="Group-4" transform="translate(313.000000, 12.000000)">
                        <path d="M13.7543608,5.11575726 C11.3372005,5.11575726 9.37041009,7.08254765 9.37041009,9.50029207 C9.37041009,11.9174523 11.3372005,13.8848269 13.7543608,13.8848269 C16.1726893,13.8848269 18.1394797,11.9174523 18.1394797,9.50029207 C18.1394797,7.08254765 16.1726893,5.11575726 13.7543608,5.11575726 L13.7543608,5.11575726 Z M13.7543608,13.0086209 C11.8196979,13.0086209 10.2466161,11.4343708 10.2466161,9.50029207 C10.2466161,7.56562923 11.8196979,5.99196326 13.7543608,5.99196326 C15.6890236,5.99196326 17.2632737,7.56562923 17.2632737,9.50029207 C17.2632737,11.4343708 15.6890236,13.0086209 13.7543608,13.0086209 L13.7543608,13.0086209 Z M26.6684689,9.33030811 C23.6327072,5.233753 19.4204929,0.532031618 13.7526083,0.532031618 C9.02927389,0.532031618 5.31649701,3.8551889 0.857192618,9.21640133 C0.720504483,9.37995978 0.72108862,9.61595126 0.858360893,9.77834144 L1.23688188,10.2310479 C4.93680774,14.6506309 8.13203894,18.4679684 13.7526083,18.4679684 C19.3854446,18.4679684 23.5929858,13.4911183 26.3775685,10.197752 L26.6515289,9.87413996 C26.7835439,9.71934357 26.7893853,9.49386656 26.6684689,9.33030811 L26.6684689,9.33030811 Z M25.7081471,9.63230711 C22.8680714,12.9910968 18.9777168,17.5917624 13.7526083,17.5917624 C8.54093508,17.5917624 5.46720444,13.9198751 1.90863982,9.66852362 L1.76377376,9.49620311 C6.06068797,4.36864561 9.4299921,1.40823762 13.7526083,1.40823762 C18.9058679,1.40823762 22.8616459,5.7109932 25.7583829,9.57447751 L25.7081471,9.63230711 L25.7081471,9.63230711 Z" id="Fill-145"></path>
                    </g>
                </g>
            </g>
        </g>
    </g>
</svg>