<?xml version="1.0" encoding="UTF-8" standalone="no"?>
<svg width="19px" height="20px" viewBox="0 0 19 20" version="1.1" xmlns="http://www.w3.org/2000/svg" xmlns:xlink="http://www.w3.org/1999/xlink">
    <!-- Generator: sketchtool 3.6.1 (26313) - http://www.bohemiancoding.com/sketch -->
    <title>3FEAC20E-23F4-44FE-8DB4-6AA4EA0D25E9</title>
    <desc>Created with sketchtool.</desc>
    <defs></defs>
    <g id="wecare" stroke="none" stroke-width="1" fill="none" fill-rule="evenodd">
        <g id="003-desk-login" transform="translate(-560.000000, -601.000000)" stroke="#16663B" stroke-width="1.2" fill="#16663B">
            <g id="Group" transform="translate(540.000000, 154.000000)">
                <g id="Password-Copy" transform="translate(0.500000, 435.000000)">
                    <g id="Fill-144-Copy-+-Fill-144-Copy-2" transform="translate(19.000000, 12.000000)">
                        <g id="Group-3" transform="translate(1.000000, 1.000000)">
                            <path d="M17.6203224,8.77703969 L9.25014491,8.77703969 L9.25014491,0.407177608 C9.25014491,0.276600568 9.14416934,0.170625 9.0135923,0.170625 C8.88301526,0.170625 8.77703969,0.276600568 8.77703969,0.407177608 L8.77703969,8.77703969 L0.407177608,8.77703969 C0.276600568,8.77703969 0.170625,8.88301526 0.170625,9.0135923 C0.170625,9.14416934 0.276600568,9.25014491 0.407177608,9.25014491 L8.77703969,9.25014491 L8.77703969,17.6203224 C8.77703969,17.7508994 8.88301526,17.856875 9.0135923,17.856875 C9.14416934,17.856875 9.25014491,17.7508994 9.25014491,17.6203224 L9.25014491,9.25014491 L17.6203224,9.25014491 C17.7508994,9.25014491 17.856875,9.14416934 17.856875,9.0135923 C17.856875,8.88301526 17.7508994,8.77703969 17.6203224,8.77703969" id="Fill-144-Copy"></path>
                            <path d="M15.7819225,15.4198255 L9.37583926,9.0136293 L15.7816811,2.60767445 C15.8816178,2.50773605 15.8816178,2.3455172 15.7816811,2.2455788 C15.6817445,2.1456404 15.5195285,2.1456404 15.4195919,2.2455788 L9.01375,8.65153365 L2.60790813,2.2455788 C2.5079715,2.1456404 2.34575551,2.1456404 2.24581887,2.2455788 C2.14588223,2.3455172 2.14588223,2.50773605 2.24581887,2.60767445 L8.65166074,9.0136293 L2.24557748,15.4198255 C2.14564084,15.5197639 2.14564084,15.6819828 2.24557748,15.7819212 C2.34551411,15.8818596 2.5077301,15.8818596 2.60766674,15.7819212 L9.01375,9.37572495 L15.4198333,15.7819212 C15.5197699,15.8818596 15.6819859,15.8818596 15.7819225,15.7819212 C15.8818592,15.6819828 15.8818592,15.5197639 15.7819225,15.4198255" id="Fill-144-Copy-2"></path>
                        </g>
                    </g>
                </g>
            </g>
        </g>
    </g>
</svg>