<?xml version="1.0" encoding="UTF-8" standalone="no"?>
<svg width="34px" height="33px" viewBox="0 0 34 33" version="1.1" xmlns="http://www.w3.org/2000/svg" xmlns:xlink="http://www.w3.org/1999/xlink">
    <!-- Generator: sketchtool 3.7.1 (28215) - http://www.bohemiancoding.com/sketch -->
    <title>B1587709-F1B0-4360-BB2D-380145C5C6F4</title>
    <desc>Created with sketchtool.</desc>
    <defs></defs>
    <g id="wecare" stroke="none" stroke-width="1" fill="none" fill-rule="evenodd">
        <g id="desktop_ui_kit" transform="translate(-1701.000000, -501.000000)" fill="#16663B">
            <g id="fav_ativo" transform="translate(1701.000000, 501.000000)">
                <path d="M32.1463888,14.915274 C32.5963437,14.4423055 32.7622002,13.8899798 32.605073,13.4003463 C32.4471523,12.9091256 31.9884681,12.5559863 31.3448817,12.4321892 L23.6456522,10.962495 C22.9473094,10.8355236 22.0267666,10.1697172 21.6752145,9.53962155 L17.110592,1.30631855 C17.005047,1.11744856 16.805067,1 16.5900091,1 C16.3725706,1 16.1741777,1.11665499 16.0694263,1.30552498 L11.4952809,9.53724083 C11.1421417,10.1697172 10.2200117,10.8355236 9.51770107,10.9640822 L1.80815518,12.4321892 C1.17409165,12.5559863 0.718581682,12.908332 0.559867407,13.397172 C0.400359561,13.886012 0.563041692,14.4383376 1.00664809,14.9144805 L6.364842,20.5924836 C6.8528884,21.108305 7.20682123,22.1915299 7.12270266,22.9065378 L6.14899059,30.6097351 C6.06090417,31.2866515 6.27834272,31.6977214 6.47752914,31.9238893 C6.87907625,32.3833671 7.57107049,32.4778021 8.26227115,32.1548185 L15.3631478,28.8535616 C15.9853078,28.5623209 17.1804262,28.5623209 17.8065541,28.8535616 L24.9034628,32.1548185 C25.1812128,32.2849642 25.4542014,32.3508307 25.7129056,32.3508307 C26.1017556,32.3508307 26.4477527,32.1992585 26.6889984,31.9246828 C26.8881849,31.698515 27.106417,31.287445 27.0183306,30.6129094 L26.0446185,22.904157 C25.9517706,22.1962914 26.306497,21.1154472 26.8040663,20.5908965 L32.1463888,14.915274 L32.1463888,14.915274 Z M25.9390735,19.773518 C25.1978778,20.5535986 24.7257029,21.997105 24.8629907,23.0557292 L25.8374964,30.7644815 C25.8676521,30.9882686 25.8240056,31.1049236 25.7946435,31.1390472 C25.7359192,31.20412 25.5637142,31.1501572 25.4073807,31.076355 L18.3088847,27.7750981 C17.8375033,27.5560724 17.2248662,27.434656 16.582867,27.434656 C15.9416613,27.434656 15.3298178,27.5560724 14.8600236,27.7750981 L7.75835333,31.076355 C7.50837835,31.1945972 7.41076907,31.1850743 7.37267765,31.1390472 C7.34252193,31.1057172 7.29966908,30.9890622 7.33061836,30.7621008 L8.30353687,23.0509677 C8.42971471,21.9820271 7.95833332,20.5432822 7.2298348,19.7751051 L1.87560874,14.0994827 C1.69546804,13.9066448 1.68515161,13.786022 1.69150019,13.7645955 C1.6994359,13.7423755 1.77879304,13.6511148 2.03432302,13.6011198 L9.73593319,12.1345999 C10.7802731,11.9441428 12.0087216,11.0577236 12.5332723,10.1173415 L16.5892156,2.8212463 L20.635636,10.1189286 C21.1593931,11.0577236 22.3878416,11.9441428 23.4274201,12.1330128 L31.120301,13.6011198 C31.3821795,13.6511148 31.4655045,13.7439627 31.4710595,13.7645955 C31.4774081,13.7836412 31.464711,13.9050577 31.281396,14.0986891 L25.9390735,19.773518 L25.9390735,19.773518 Z" id="Fill-85" stroke="#16663B"></path>
                <path d="M7.16989321,30.8867552 C7.39146414,27.850883 8.39261086,24.7521209 7.83460599,21.7791386 C7.16989328,18.23763 3.57362658,17.5805327 1.63497177,14.5318478 C-0.104876425,11.7958016 7.6081713,13.6757941 10.2813147,11.9836005 C13.1922622,10.1408686 16.607183,2.96302028 16.607183,2.96302028 C16.607183,2.96302028 19.9831869,10.1085153 22.7114073,12.0068092 C25.1524214,13.7052652 30.5994792,12.374523 31.2718063,13.6800144 C31.9441333,14.9855059 26.0792711,18.7073134 25.1740718,21.7791393 C24.3278396,24.6508585 27.1442771,29.9406358 26.1357837,30.8867551 C24.2953401,32.6133694 19.8657985,27.3608399 16.3537269,27.3608399 L7.16989321,30.8867552 Z" id="Path-451"></path>
            </g>
        </g>
    </g>
</svg>