<?xml version="1.0" encoding="UTF-8" standalone="no"?>
<svg width="21px" height="16px" viewBox="0 0 21 16" version="1.1" xmlns="http://www.w3.org/2000/svg" xmlns:xlink="http://www.w3.org/1999/xlink">
    <!-- Generator: sketchtool 3.6.1 (26313) - http://www.bohemiancoding.com/sketch -->
    <title>7AC929BD-8078-4672-841C-F810B3952653</title>
    <desc>Created with sketchtool.</desc>
    <defs></defs>
    <g id="wecare" stroke="none" stroke-width="1" fill="none" fill-rule="evenodd">
        <g id="003-desk-login" transform="translate(-559.000000, -539.000000)" stroke="#16663B" fill="#16663B">
            <g id="Group" transform="translate(540.000000, 154.000000)">
                <g id="Email-Copy" transform="translate(0.500000, 371.000000)">
                    <g id="Group-2" transform="translate(18.000000, 14.000000)">
                        <path d="M20.7243936,1.15788056 C20.7217089,1.13416635 20.7181294,1.11179446 20.7100755,1.08987001 C20.703364,1.06928787 20.6939678,1.05139035 20.6832293,1.0330454 C20.6729382,1.01425301 20.6621997,0.997250377 20.6483291,0.980695177 C20.6335637,0.962350226 20.6152187,0.948032216 20.5959789,0.933266767 C20.5861353,0.925212886 20.5789763,0.914474378 20.5677903,0.907762811 C20.5615262,0.904183308 20.5543672,0.904183308 20.5476556,0.901051243 C20.5275209,0.889865298 20.5055965,0.884048606 20.4832246,0.877784476 C20.4613001,0.871967784 20.440718,0.866598531 20.4183461,0.864808779 C20.4111871,0.864361341 20.4044755,0.860334401 20.3964216,0.860334401 L2.06757837,0.860334401 C2.05952449,0.860334401 2.05281292,0.864361341 2.04475904,0.865256217 C2.02372946,0.866598531 2.00359476,0.871967784 1.98256518,0.877337038 C1.95974586,0.884048606 1.93737396,0.889865298 1.91589695,0.901051243 C1.91008026,0.904183308 1.90292125,0.904183308 1.89665712,0.907762811 C1.88502374,0.914474378 1.87875961,0.925212886 1.8680211,0.933266767 C1.84878127,0.948032216 1.83088376,0.962350226 1.81611831,0.980695177 C1.8018003,0.997250377 1.79106179,1.01425301 1.78077072,1.03259797 C1.77003222,1.05139035 1.76063602,1.06928787 1.75347702,1.08987001 C1.74676545,1.11179446 1.74318595,1.13416635 1.74050132,1.15788056 C1.73871157,1.17085625 1.732,1.18248964 1.732,1.19591277 L1.732,14.8740872 C1.732,15.0593265 1.88278655,15.2096656 2.06757837,15.2096656 L20.3964216,15.2096656 C20.5816609,15.2096656 20.732,15.0593265 20.732,14.8740872 L20.732,1.19591277 C20.732,1.18248964 20.7261833,1.17085625 20.7243936,1.15788056 L20.7243936,1.15788056 Z M19.7789574,1.53149115 C18.7838557,3.00400904 15.5972035,7.27659288 11.232,8.78445836 C6.86679653,7.27659288 3.68059175,3.00400904 2.68504258,1.53149115 L19.7789574,1.53149115 L19.7789574,1.53149115 Z M2.40360418,2.31361247 C3.33159024,3.63444894 5.24662415,6.05553504 7.8847176,7.83186323 C5.19919574,9.9321364 3.2541835,12.5559118 2.40360418,13.8172391 L2.40360418,2.31361247 L2.40360418,2.31361247 Z M2.73336586,14.5385089 C3.40362773,13.5102967 5.52090354,10.4748785 8.48338941,8.21487001 C9.30399039,8.7151055 10.1867852,9.14643557 11.1255098,9.46008949 C11.1259572,9.46053693 11.1268521,9.46008949 11.1281944,9.46053693 C11.1613048,9.47127543 11.196205,9.47709213 11.232,9.47709213 C11.2669002,9.47709213 11.3018003,9.47127543 11.3353581,9.46053693 C11.3358056,9.46008949 11.3367005,9.46053693 11.3375953,9.46008949 C12.2767673,9.14643557 13.1577724,8.71555294 13.977926,8.21621232 C16.9404118,10.4762208 19.0572402,13.5107442 19.7279495,14.5385089 L2.73336586,14.5385089 L2.73336586,14.5385089 Z M20.0603958,13.8226083 C19.2125011,12.5635183 17.2661466,9.93661078 14.5770452,7.83320554 C17.216481,6.05687735 19.1328572,3.63444894 20.0603958,2.31361247 L20.0603958,13.8226083 L20.0603958,13.8226083 Z" id="Fill-71"></path>
                    </g>
                </g>
            </g>
        </g>
    </g>
</svg>