<?xml version="1.0" encoding="UTF-8" standalone="no"?>
<svg width="24px" height="29px" viewBox="0 0 24 29" version="1.1" xmlns="http://www.w3.org/2000/svg" xmlns:xlink="http://www.w3.org/1999/xlink">
    <!-- Generator: sketchtool 3.7.1 (28215) - http://www.bohemiancoding.com/sketch -->
    <title>0DA406EC-9CC3-41D0-AB8E-564C24646484</title>
    <desc>Created with sketchtool.</desc>
    <defs></defs>
    <g id="wecare" stroke="none" stroke-width="1" fill="none" fill-rule="evenodd">
        <g id="desktop_ui_kit" transform="translate(-2149.000000, -569.000000)" stroke="#16663B" fill="#16663B">
            <g id="Group-2" transform="translate(2149.000000, 569.000000)">
                <path d="M22.5507515,4.52929645 L17.2124809,4.52929645 L17.2124809,2.56518188 C17.2124809,1.7020257 16.5104552,1 15.6478981,1 L8.79895448,1 C7.93819429,1 7.23676759,1.7020257 7.23676759,2.56518188 L7.23676759,4.52929645 L1.44924853,4.52929645 C1.20066434,4.52929645 1,4.73055979 1,4.97854498 C1,5.22653017 1.20066434,5.42779351 1.44924853,5.42779351 L3.07073622,5.42779351 L3.74101503,24.2728708 C3.74101503,26.060281 5.19418427,27.5146482 6.97979743,27.5146482 L17.0208016,27.5146482 C18.8058157,27.5146482 20.258985,26.060281 20.258985,24.2884448 L20.9286648,5.42779351 L22.5507515,5.42779351 C22.7987367,5.42779351 23,5.22653017 23,4.97854498 C23,4.73055979 22.7987367,4.52929645 22.5507515,4.52929645 L22.5507515,4.52929645 Z M8.13526465,2.56518188 C8.13526465,2.19739708 8.43356567,1.89849706 8.79895448,1.89849706 L15.6478981,1.89849706 C16.0144849,1.89849706 16.3139839,2.19739708 16.3139839,2.56518188 L16.3139839,4.52929645 L8.13526465,4.52929645 L8.13526465,2.56518188 L8.13526465,2.56518188 Z M19.3604879,24.2728708 C19.3604879,25.5649096 18.3110433,26.6161512 17.0208016,26.6161512 L6.97979743,26.6161512 C5.68955565,26.6161512 4.63951209,25.5649096 4.63951209,24.2560989 L3.96983228,5.42779351 L20.0295687,5.42779351 L19.3604879,24.2728708 L19.3604879,24.2728708 Z M15.4681986,20.9670007 C15.7161838,20.9670007 15.9174472,20.7657373 15.9174472,20.5177521 L15.9174472,11.5369745 C15.9174472,11.2889893 15.7161838,11.087726 15.4681986,11.087726 C15.2202135,11.087726 15.0189501,11.2889893 15.0189501,11.5369745 L15.0189501,20.5177521 C15.0189501,20.7657373 15.2202135,20.9670007 15.4681986,20.9670007 L15.4681986,20.9670007 Z M8.56354825,20.9670007 C8.81153343,20.9670007 9.01279678,20.7657373 9.01279678,20.5177521 L9.01279678,11.5369745 C9.01279678,11.2889893 8.81153343,11.087726 8.56354825,11.087726 C8.31556306,11.087726 8.11429972,11.2889893 8.11429972,11.5369745 L8.11429972,20.5177521 C8.11429972,20.7657373 8.31556306,20.9670007 8.56354825,20.9670007 L8.56354825,20.9670007 Z M11.988619,23.0227619 C12.2366042,23.0227619 12.4378676,22.8214986 12.4378676,22.5735134 L12.4378676,9.48181224 C12.4378676,9.23322805 12.2366042,9.03256371 11.988619,9.03256371 C11.7406338,9.03256371 11.5393705,9.23322805 11.5393705,9.48181224 L11.5393705,22.5735134 C11.5393705,22.8214986 11.7406338,23.0227619 11.988619,23.0227619 L11.988619,23.0227619 Z" id="Fill-132-Copy"></path>
            </g>
        </g>
    </g>
</svg>