<?xml version="1.0" encoding="utf-8"?>
<!-- Generator: Adobe Illustrator 17.0.0, SVG Export Plug-In . SVG Version: 6.00 Build 0)  -->
<!DOCTYPE svg PUBLIC "-//W3C//DTD SVG 1.1//EN" "http://www.w3.org/Graphics/SVG/1.1/DTD/svg11.dtd">
<svg version="1.1" id="Layer_1" xmlns:sketch="http://www.bohemiancoding.com/sketch/ns"
	 xmlns="http://www.w3.org/2000/svg" xmlns:xlink="http://www.w3.org/1999/xlink" x="0px" y="0px" width="31.393px"
	 height="31.393px" viewBox="0 0.1 31.393 31.393" enable-background="new 0 0.1 31.393 31.393" xml:space="preserve">
<title>veja o video + Imported Layers</title>
<desc>Created with bin/sketchtool.</desc>
<g id="wecare" sketch:type="MSPage">
	<g id="_x30_1.Desktop_x5F_Inicial" transform="translate(-932.000000, -1403.000000)" sketch:type="MSArtboardGroup">
		<g id="sobre" transform="translate(150.000000, 1172.000000)" sketch:type="MSLayerGroup">
			<g id="veja-o-video-_x2B_-Imported-Layers" transform="translate(782.000000, 231.000000)">
				<g id="Imported-Layers" transform="translate(1.379910, 1.126637)" sketch:type="MSShapeGroup">
					<path id="Stroke-1" fill="none" stroke="#16663B" stroke-width="3" d="M28.514,14.67c0,7.841-6.356,14.197-14.197,14.197
						S0.121,22.511,0.121,14.67c0-7.84,6.356-14.197,14.197-14.197S28.514,6.83,28.514,14.67L28.514,14.67z"/>
					<path id="Fill-2" fill="#16663B" d="M13.096,9.714c-1.707-1.015-3.103-0.221-3.103,1.765v6.652c0,1.986,1.396,2.78,3.103,1.765
						l5.458-3.246c1.707-1.015,1.707-2.675,0-3.69L13.096,9.714"/>
				</g>
			</g>
		</g>
	</g>
</g>
</svg>
