<?xml version="1.0" encoding="UTF-8" standalone="no"?>
<svg width="16px" height="20px" viewBox="0 0 16 20" version="1.1" xmlns="http://www.w3.org/2000/svg" xmlns:xlink="http://www.w3.org/1999/xlink">
    <!-- Generator: sketchtool 3.6.1 (26313) - http://www.bohemiancoding.com/sketch -->
    <title>B7CFB7DC-2AC6-4F87-84A6-36AC248C4A6B</title>
    <desc>Created with sketchtool.</desc>
    <defs></defs>
    <g id="wecare" stroke="none" stroke-width="1" fill="none" fill-rule="evenodd">
        <g id="04.Desktop_cadastro" transform="translate(-561.000000, -618.000000)" stroke="#16663B" fill="#16663B">
            <g id="Group-+-cadastrar-se-+-Imported-Layers-Copy" transform="translate(540.000000, 151.000000)">
                <g id="Group" transform="translate(0.000000, 115.000000)">
                    <g id="Password-Copy-3" transform="translate(0.500000, 340.000000)">
                        <g id="Group-2" transform="translate(20.000000, 12.000000)">
                            <path d="M11.6025515,7.22777085 C11.6025515,5.64263948 10.3135367,4.35425071 8.72965736,4.35425071 C7.14577807,4.35425071 5.8573893,5.64263948 5.8573893,7.22777085 C5.8573893,8.81039806 7.14577807,10.0981608 8.72965736,10.0981608 C10.3135367,10.0981608 11.6025515,8.81039806 11.6025515,7.22777085 L11.6025515,7.22777085 Z M6.79644817,7.22777085 C6.79644817,6.16099997 7.66413857,5.29330958 8.72965736,5.29330958 C9.79642824,5.29330958 10.6634926,6.16099997 10.6634926,7.22777085 C10.6634926,8.29266361 9.79642824,9.15910192 8.72965736,9.15910192 C7.66413857,9.15910192 6.79644817,8.29266361 6.79644817,7.22777085 L6.79644817,7.22777085 Z M8.72965736,18.6442225 C9.98361397,18.6442225 15.6098287,11.5812478 15.6098287,8.08982689 C15.6098287,4.29477698 12.5228292,1.20777745 8.72965736,1.20777745 C4.93648557,1.20777745 1.84948605,4.29477698 1.84948605,8.08982689 C1.84948605,11.5812478 7.47632679,18.6442225 8.72965736,18.6442225 L8.72965736,18.6442225 Z M8.72965736,2.14683632 C12.0057207,2.14683632 14.6707698,4.81251144 14.6707698,8.08982689 C14.6707698,11.1649317 9.83273852,16.9301271 8.72965736,17.662593 C7.62595017,16.9301271 2.78854492,11.1649317 2.78854492,8.08982689 C2.78854492,4.81251144 5.45359399,2.14683632 8.72965736,2.14683632 L8.72965736,2.14683632 Z" id="Fill-62"></path>
                        </g>
                    </g>
                </g>
            </g>
        </g>
    </g>
</svg>