<?xml version="1.0" encoding="utf-8"?>
<!-- Generator: Adobe Illustrator 17.0.0, SVG Export Plug-In . SVG Version: 6.00 Build 0)  -->
<!DOCTYPE svg PUBLIC "-//W3C//DTD SVG 1.1//EN" "http://www.w3.org/Graphics/SVG/1.1/DTD/svg11.dtd">
<svg version="1.1" id="Layer_1" xmlns="http://www.w3.org/2000/svg" xmlns:xlink="http://www.w3.org/1999/xlink" x="0px" y="0px"
	 width="24px" height="24px" viewBox="0 0 24 24" enable-background="new 0 0 24 24" xml:space="preserve">
<g id="wecare">
	<g id="_x30_9.Desktop_x5F_UIKIT" transform="translate(-1056.000000, -276.000000)">
		<g id="campo" transform="translate(993.000000, 120.000000)">
			<g id="horta_hover" transform="translate(63.000000, 156.000000)">
				<ellipse id="Oval-3-Copy-2" fill="#FFFFFF" cx="12" cy="12" rx="11.434" ry="11.572"/>
				<path fill="#16663B" d="M12,5.383c-3.654,0-6.617,2.963-6.617,6.617S8.346,18.617,12,18.617s6.617-2.963,6.617-6.617
					S15.654,5.383,12,5.383z M12.551,14.237v-1.686h1.651c-0.033,0.63-0.117,1.235-0.251,1.808
					C13.497,14.293,13.028,14.256,12.551,14.237z M13.631,15.429c-0.275,0.733-0.639,1.377-1.079,1.906v-1.996
					C12.919,15.354,13.279,15.384,13.631,15.429z M12.551,11.449V9.786c0.479-0.019,0.949-0.057,1.405-0.124
					c0.131,0.566,0.215,1.164,0.246,1.786H12.551z M12.551,8.684V6.665c0.444,0.534,0.811,1.186,1.087,1.928
					C13.284,8.639,12.921,8.668,12.551,8.684z M14.042,6.882c0.682,0.274,1.298,0.677,1.814,1.183
					c-0.354,0.129-0.723,0.244-1.113,0.335C14.553,7.853,14.315,7.347,14.042,6.882z M10.049,14.36
					c-0.135-0.573-0.219-1.178-0.251-1.808h1.651v1.686C10.972,14.256,10.503,14.293,10.049,14.36z M11.449,15.339v1.996
					c-0.44-0.529-0.804-1.172-1.079-1.906C10.721,15.384,11.081,15.354,11.449,15.339z M9.798,11.449
					c0.031-0.622,0.114-1.22,0.246-1.786c0.456,0.067,0.926,0.105,1.405,0.124v1.663H9.798z M10.362,8.593
					c0.276-0.742,0.642-1.393,1.086-1.928v2.019C11.079,8.668,10.716,8.639,10.362,8.593z M9.257,8.4
					c-0.39-0.091-0.759-0.206-1.113-0.335c0.517-0.506,1.132-0.91,1.814-1.183C9.685,7.347,9.447,7.853,9.257,8.4z M8.954,9.457
					c-0.146,0.635-0.239,1.301-0.271,1.991H6.514c0.091-0.914,0.408-1.763,0.892-2.491C7.891,9.156,8.407,9.327,8.954,9.457z
					 M8.959,14.565c-0.545,0.13-1.059,0.299-1.542,0.496c-0.491-0.732-0.811-1.588-0.903-2.51h2.169
					C8.715,13.249,8.81,13.923,8.959,14.565z M9.264,15.622c0.189,0.538,0.424,1.037,0.693,1.496
					c-0.674-0.27-1.283-0.668-1.795-1.166C8.512,15.825,8.878,15.711,9.264,15.622z M14.736,15.622
					c0.386,0.09,0.751,0.202,1.102,0.329c-0.513,0.498-1.122,0.896-1.796,1.167C14.312,16.659,14.547,16.16,14.736,15.622z
					 M15.041,14.565c0.149-0.641,0.244-1.316,0.276-2.013h2.169c-0.092,0.922-0.412,1.777-0.903,2.51
					C16.1,14.864,15.585,14.695,15.041,14.565z M15.317,11.449c-0.032-0.69-0.126-1.357-0.271-1.991
					c0.547-0.131,1.064-0.301,1.549-0.5c0.484,0.728,0.8,1.577,0.891,2.491C17.486,11.449,15.317,11.449,15.317,11.449z"/>
			</g>
		</g>
	</g>
</g>
</svg>
