<?xml version="1.0" encoding="UTF-8" standalone="no"?>
<svg width="223px" height="62px" viewBox="0 0 223 62" version="1.1" xmlns="http://www.w3.org/2000/svg" xmlns:xlink="http://www.w3.org/1999/xlink" xmlns:sketch="http://www.bohemiancoding.com/sketch/ns">
    <!-- Generator: bin/sketchtool 1.4 (305) - http://www.bohemiancoding.com/sketch -->
    <title>logo</title>
    <desc>Created with bin/sketchtool.</desc>
    <defs></defs>
    <g id="wecare" stroke="none" stroke-width="1" fill="none" fill-rule="evenodd" sketch:type="MSPage">
        <g id="09.Desktop_UIKIT" sketch:type="MSArtboardGroup" transform="translate(-123.000000, -78.000000)">
            <g id="logo-copy" sketch:type="MSLayerGroup" transform="translate(123.000000, 77.000000)">
                <path d="M6.95558886,24.3607681 L6.95558886,34.4253768 C8.29595491,32.1893913 10.4342706,31.0705072 13.3687613,31.0705072 C15.7981008,31.0705072 17.764878,31.8845652 19.2702759,33.5108986 C20.7756737,35.1372319 21.5292599,37.3488551 21.5292599,40.1439855 L21.5292599,52.5723333 L15.0764562,52.5723333 L15.0764562,41.021029 C15.0764562,39.6484203 14.7162255,38.5871739 13.9951724,37.8372899 C13.2741194,37.0885942 12.2809708,36.713058 11.0163183,36.713058 C9.75048276,36.713058 8.75851724,37.0885942 8.03746419,37.8372899 C7.31581963,38.5871739 6.95558886,39.6484203 6.95558886,41.021029 L6.95558886,52.5723333 L0.465519894,52.5723333 L0.465519894,24.3607681 L6.95558886,24.3607681" id="Fill-1" fill="#211914" sketch:type="MSShapeGroup"></path>
                <path d="M27.2024509,49.8277101 C25.0641353,47.8198986 23.9952732,45.1762899 23.9952732,41.8974783 C23.9952732,38.6192609 25.0582202,35.9952609 27.182931,34.0254783 C29.3088249,32.0556957 31.9392785,31.0705072 35.0772493,31.0705072 C38.2140371,31.0705072 40.8391671,32.0556957 42.9520477,34.0254783 C45.0643369,35.9952609 46.1207772,38.6192609 46.1207772,41.8974783 C46.1207772,45.1762899 45.070252,47.8198986 42.9709761,49.8277101 C40.8711088,51.8355217 38.2518939,52.8391304 35.1151061,52.8391304 C31.9771353,52.8391304 29.3395836,51.8355217 27.2024509,49.8277101 L27.2024509,49.8277101 Z M38.2270504,45.9006232 C39.0871088,44.9861449 39.5177294,43.6646377 39.5177294,41.9361014 C39.5177294,40.2081594 39.074687,38.8925942 38.1897851,37.99 C37.3031088,37.0885942 36.2537666,36.6364058 35.0388011,36.6364058 C33.8250186,36.6364058 32.7815915,37.0885942 31.9079284,37.99 C31.0354483,38.8925942 30.599504,40.2081594 30.599504,41.9361014 C30.599504,43.6646377 31.04787,44.9861449 31.9463767,45.9006232 C32.8437003,46.8156957 33.9007321,47.2732319 35.1151061,47.2732319 C36.3294801,47.2732319 37.366992,46.8156957 38.2270504,45.9006232 L38.2270504,45.9006232 Z" id="Fill-2" fill="#211914" sketch:type="MSShapeGroup"></path>
                <path d="M56.7851459,31.2992754 L56.7851459,35.2643913 C58.3029655,32.4686667 60.3271194,31.0705072 62.8576074,31.0705072 L62.8576074,37.7041884 L61.2628912,37.7041884 C59.7705066,37.7041884 58.6507745,38.0601159 57.904878,38.771971 C57.1583899,39.4832319 56.7851459,40.7292754 56.7851459,42.5077246 L56.7851459,52.5723333 L50.2956684,52.5723333 L50.2956684,31.2992754 L56.7851459,31.2992754" id="Fill-3" fill="#211914" sketch:type="MSShapeGroup"></path>
                <path d="M75.3805066,47.0438696 L77.6956844,47.0438696 L77.6956844,52.5723333 L74.3944562,52.5723333 C72.0159867,52.5723333 70.1752016,52.0458696 68.8732838,50.989971 C67.569,49.9358551 66.9183369,48.1253188 66.9183369,45.5577681 L66.9183369,36.713058 L64.9450531,36.713058 L64.9450531,31.2992754 L66.9183369,31.2992754 L66.9183369,26.1142609 L73.4078143,26.1142609 L73.4078143,31.2992754 L77.6578276,31.2992754 L77.6578276,36.713058 L73.4078143,36.713058 L73.4078143,45.5577681 C73.4078143,46.5488986 74.0655756,47.0438696 75.3805066,47.0438696" id="Fill-4" fill="#211914" sketch:type="MSShapeGroup"></path>
                <path d="M83.3883952,49.7896812 C81.5156684,47.7563188 80.5798966,45.1513333 80.5798966,41.9741304 C80.5798966,38.7975217 81.5156684,36.1854058 83.3883952,34.1395652 C85.261122,32.0937246 87.5437666,31.0705072 90.2392865,31.0705072 C92.9330318,31.0705072 95.0009576,32.0753043 96.4436552,34.0825217 L96.4436552,31.2992754 L102.933724,31.2992754 L102.933724,52.5723333 L96.4436552,52.5723333 L96.4436552,49.4842609 C94.8749655,51.7214348 92.7750981,52.8391304 90.1440531,52.8391304 C87.5118249,52.8391304 85.261122,51.8230435 83.3883952,49.7896812 L83.3883952,49.7896812 Z M95.0394058,45.8245652 C95.9751777,44.9094928 96.4436552,43.6135362 96.4436552,41.9361014 C96.4436552,40.2580725 95.9751777,38.9686522 95.0394058,38.0666522 C94.103634,37.1646522 93.0276737,36.713058 91.8138912,36.713058 C90.5995172,36.713058 89.523557,37.1705942 88.5883767,38.0850725 C87.6514218,39.0001449 87.1835358,40.2966957 87.1835358,41.9741304 C87.1835358,43.6515652 87.6514218,44.9415797 88.5883767,45.8435797 C89.523557,46.7461739 90.5995172,47.1971739 91.8138912,47.1971739 C93.0276737,47.1971739 94.103634,46.7396377 95.0394058,45.8245652 L95.0394058,45.8245652 Z" id="Fill-5" fill="#211914" sketch:type="MSShapeGroup"></path>
                <path d="M107.107432,24.3607681 L113.597501,24.3607681 L113.597501,52.5723333 L107.107432,52.5723333 L107.107432,24.3607681 Z" id="Fill-6" fill="#211914" sketch:type="MSShapeGroup"></path>
                <path d="M123.692836,28.8975072 C122.958769,29.634913 122.060263,30.0033188 120.998499,30.0033188 C119.935552,30.0033188 119.037045,29.634913 118.30357,28.8975072 C117.569504,28.1606957 117.203358,27.2521594 117.203358,26.1713043 C117.203358,25.0916377 117.569504,24.1831014 118.30357,23.4456957 C119.037045,22.7088841 119.935552,22.3404783 120.998499,22.3404783 C122.060263,22.3404783 122.958769,22.7088841 123.692836,23.4456957 C124.42631,24.1831014 124.793639,25.0916377 124.793639,26.1713043 C124.793639,27.2521594 124.42631,28.1606957 123.692836,28.8975072 L123.692836,28.8975072 Z M117.771801,31.2992754 L124.26187,31.2992754 L124.26187,52.5723333 L117.771801,52.5723333 L117.771801,31.2992754 Z" id="Fill-7" fill="#211914" sketch:type="MSShapeGroup"></path>
                <path d="M127.260244,31.2992754 L134.166737,31.2992754 L138.986968,47.1205217 L143.806607,31.2992754 L150.713692,31.2992754 L143.199716,52.5723333 L134.77422,52.5723333 L127.260244,31.2992754" id="Fill-8" fill="#211914" sketch:type="MSShapeGroup"></path>
                <path d="M159.442042,31.2992754 L159.442042,35.2643913 C160.959862,32.4686667 162.984016,31.0705072 165.513912,31.0705072 L165.513912,37.7041884 L163.920379,37.7041884 C162.427403,37.7041884 161.307671,38.0601159 160.561183,38.771971 C159.815286,39.4832319 159.442042,40.7292754 159.442042,42.5077246 L159.442042,52.5723333 L152.951973,52.5723333 L152.951973,31.2992754 L159.442042,31.2992754" id="Fill-9" fill="#211914" sketch:type="MSShapeGroup"></path>
                <path d="M177.279085,52.8391304 C174.191984,52.8391304 171.662679,51.842058 169.688804,49.8461304 C167.71552,47.8519855 166.728878,45.2018406 166.728878,41.8974783 C166.728878,38.5943043 167.709013,35.9637681 169.669875,34.0064638 C171.630146,32.0491594 174.167141,31.0705072 177.279085,31.0705072 C180.391621,31.0705072 182.971796,32.0366812 185.021385,33.9678406 C187.070973,35.9001884 188.095472,38.5812319 188.095472,42.0121594 C188.095472,42.7495652 188.044011,43.4358696 187.943454,44.0710725 L173.370374,44.0710725 C173.496366,45.0116957 173.914565,45.78 174.622605,46.3771739 C175.330645,46.9743478 176.096061,47.2732319 176.918854,47.2732319 C177.740464,47.2732319 178.354454,47.1912319 178.759048,47.0254493 C179.163642,46.8602609 179.461172,46.6950725 179.651048,46.5298841 C179.840923,46.3646957 180.087584,46.0913623 180.391621,45.7098841 L187.412276,45.7098841 C186.805385,47.8448551 185.590419,49.5674493 183.769154,50.8758841 C181.947297,52.1855072 179.783546,52.8391304 177.279085,52.8391304 L177.279085,52.8391304 Z M180.049727,37.571087 C179.290225,36.9483623 178.39231,36.6364058 177.35539,36.6364058 C176.317286,36.6364058 175.444215,36.9483623 174.736175,37.571087 C174.028135,38.1938116 173.585093,39.0001449 173.408231,39.9912754 L181.339814,39.9912754 C181.238074,39.0001449 180.808637,38.1938116 180.049727,37.571087 L180.049727,37.571087 Z" id="Fill-10" fill="#211914" sketch:type="MSShapeGroup"></path>
                <path d="M195.039822,62.6844783 L209.007194,53.7512319 L222.973973,62.6844783 L222.973973,0.999999593 L195.039822,0.999999593 L195.039822,62.6844783 Z M209.664955,46.2975507 L209.664955,49.472971 C209.664955,49.8384058 209.370382,50.1343188 209.007194,50.1343188 C208.643414,50.1343188 208.348841,49.8384058 208.348841,49.472971 L208.348841,46.2975507 C205.552172,45.9695507 203.380141,43.5850145 203.380141,40.687087 C203.380141,37.5651449 209.006602,27.7673333 209.006602,27.7673333 C209.006602,27.7673333 214.633655,37.5651449 214.633655,40.687087 C214.633655,43.5844203 212.462215,45.9695507 209.664955,46.2975507 L209.664955,46.2975507 Z" id="Fill-11" fill="#16663B" sketch:type="MSShapeGroup"></path>
            </g>
        </g>
    </g>
</svg>