<?xml version="1.0" encoding="UTF-8" standalone="no"?>
<svg width="204px" height="114px" viewBox="0 0 204 114" version="1.1" xmlns="http://www.w3.org/2000/svg" xmlns:xlink="http://www.w3.org/1999/xlink">
    <!-- Generator: sketchtool 3.6.1 (26313) - http://www.bohemiancoding.com/sketch -->
    <title>66F2F0DD-3128-46E4-B88A-939FE7DC54C6</title>
    <desc>Created with sketchtool.</desc>
    <defs></defs>
    <g id="wecare" stroke="none" stroke-width="1" fill="none" fill-rule="evenodd">
        <g id="mobile_inicial" transform="translate(-58.000000, 0.000000)">
            <g id="topo" transform="translate(58.000000, 0.000000)">
                <g id="logo">
                    <g id="Group" transform="translate(0.000000, 80.342857)" fill="#211914">
                        <path d="M7.54442178,2.56311967 L7.54442178,13.4904091 C8.99825797,11.0627677 11.317595,9.8479793 14.5005083,9.8479793 C17.1355062,9.8479793 19.268783,10.7318137 20.901622,12.497547 C22.5344609,14.2632803 23.3518428,16.6644712 23.3518428,19.6991843 L23.3518428,33.192819 L16.35277,33.192819 L16.35277,20.6514029 C16.35277,19.161142 15.9620435,18.0089317 15.1799489,17.1947718 C14.3978543,16.3819023 13.3206297,15.9741772 11.9489167,15.9741772 C10.5759205,15.9741772 9.49997902,16.3819023 8.71788444,17.1947718 C7.93514827,18.0089317 7.54442178,19.161142 7.54442178,20.6514029 L7.54442178,33.192819 L0.504928985,33.192819 L0.504928985,2.56311967 L7.54442178,2.56311967" id="Fill-1"></path>
                        <path d="M29.5053039,30.2129424 C27.1859668,28.0330327 26.0266191,25.162829 26.0266191,21.6029764 C26.0266191,18.0437689 27.179551,15.1948547 29.4841315,13.0562335 C31.7899953,10.9176124 34.6431328,9.8479793 38.0467519,9.8479793 C41.4490879,9.8479793 44.2964511,10.9176124 46.5881999,13.0562335 C48.8793072,15.1948547 50.0251816,18.0437689 50.0251816,21.6029764 C50.0251816,25.162829 48.8857231,28.0330327 46.6087307,30.2129424 C44.3310968,32.3928522 41.4901495,33.4824845 38.0878135,33.4824845 C34.6841943,33.4824845 31.8233578,32.3928522 29.5053039,30.2129424 L29.5053039,30.2129424 Z M41.4632028,25.949248 C42.3960703,24.9563859 42.8631457,23.5216066 42.8631457,21.6449101 C42.8631457,19.7688588 42.382597,18.3405308 41.4227828,17.3605714 C40.4610439,16.3819023 39.3228685,15.8909549 38.0050488,15.8909549 C36.6885122,15.8909549 35.5567527,16.3819023 34.6091287,17.3605714 C33.6627878,18.3405308 33.1899382,19.7688588 33.1899382,21.6449101 C33.1899382,23.5216066 33.6762611,24.9563859 34.6508318,25.949248 C35.6241193,26.9427553 36.7706353,27.4395089 38.0878135,27.4395089 C39.4049916,27.4395089 40.5303353,26.9427553 41.4632028,25.949248 L41.4632028,25.949248 Z" id="Fill-2"></path>
                        <path d="M61.592354,10.0963561 L61.592354,14.4013391 C63.2386663,11.365981 65.4341771,9.8479793 68.1788864,9.8479793 L68.1788864,17.0502617 L66.4491678,17.0502617 C64.8304437,17.0502617 63.6159195,17.4366973 62.8068782,18.2095685 C61.9971954,18.9817946 61.592354,20.3346418 61.592354,22.2655296 L61.592354,33.192819 L54.5535028,33.192819 L54.5535028,10.0963561 L61.592354,10.0963561" id="Fill-3"></path>
                        <path d="M81.7619252,27.190487 L84.2730968,27.190487 L84.2730968,33.192819 L80.6923996,33.192819 C78.1125782,33.192819 76.1159594,32.6212298 74.7038264,31.4748257 C73.289127,30.3303569 72.5833813,28.3646319 72.5833813,25.5770054 L72.5833813,15.9741772 L70.443047,15.9741772 L70.443047,10.0963561 L72.5833813,10.0963561 L72.5833813,4.4669118 L79.6222325,4.4669118 L79.6222325,10.0963561 L84.2320352,10.0963561 L84.2320352,15.9741772 L79.6222325,15.9741772 L79.6222325,25.5770054 C79.6222325,26.6530899 80.3356772,27.190487 81.7619252,27.190487" id="Fill-4"></path>
                        <path d="M90.4477303,30.1716538 C88.4164658,27.9640033 87.4014751,25.1357333 87.4014751,21.6861988 C87.4014751,18.2373093 88.4164658,15.4012977 90.4477303,13.1800994 C92.4789948,10.958901 94.9548791,9.8479793 97.8785911,9.8479793 C100.800378,9.8479793 103.043367,10.9389019 104.608197,13.1181665 L104.608197,10.0963561 L111.64769,10.0963561 L111.64769,33.192819 L104.608197,33.192819 L104.608197,29.8400547 C102.906709,32.2689863 100.629075,33.4824845 97.7752956,33.4824845 C94.9202334,33.4824845 92.4789948,32.3793043 90.4477303,30.1716538 L90.4477303,30.1716538 Z M103.08507,25.8666708 C104.10006,24.8731636 104.608197,23.4661251 104.608197,21.6449101 C104.608197,19.8230501 104.10006,18.4231081 103.08507,17.4437938 C102.070079,16.4644795 100.903032,15.9741772 99.5864958,15.9741772 C98.2693176,15.9741772 97.1022709,16.4709308 96.0879218,17.463793 C95.0716479,18.4573002 94.5641526,19.8649839 94.5641526,21.6861988 C94.5641526,23.5074137 95.0716479,24.9080008 96.0879218,25.8873151 C97.1022709,26.8672745 98.2693176,27.3569317 99.5864958,27.3569317 C100.903032,27.3569317 102.070079,26.8601781 103.08507,25.8666708 L103.08507,25.8666708 Z" id="Fill-5"></path>
                        <path d="M116.174728,2.56311967 L123.214221,2.56311967 L123.214221,33.192819 L116.174728,33.192819 L116.174728,2.56311967 Z" id="Fill-6"></path>
                        <path d="M134.164187,7.48872215 C133.367977,8.28933416 132.393407,8.6893176 131.241758,8.6893176 C130.088826,8.6893176 129.114255,8.28933416 128.318687,7.48872215 C127.522478,6.68875528 127.125335,5.70234451 127.125335,4.52884472 C127.125335,3.3566352 127.522478,2.37022443 128.318687,1.56961242 C129.114255,0.769645549 130.088826,0.369662112 131.241758,0.369662112 C132.393407,0.369662112 133.367977,0.769645549 134.164187,1.56961242 C134.959755,2.37022443 135.35818,3.3566352 135.35818,4.52884472 C135.35818,5.70234451 134.959755,6.68875528 134.164187,7.48872215 L134.164187,7.48872215 Z M127.741901,10.0963561 L134.781393,10.0963561 L134.781393,33.192819 L127.741901,33.192819 L127.741901,10.0963561 Z" id="Fill-7"></path>
                        <path d="M138.033598,10.0963561 L145.524768,10.0963561 L150.753061,27.2737093 L155.980712,10.0963561 L163.472523,10.0963561 L155.322443,33.192819 L146.183678,33.192819 L138.033598,10.0963561" id="Fill-8"></path>
                        <path d="M172.939781,10.0963561 L172.939781,14.4013391 C174.586094,11.365981 176.781605,9.8479793 179.525672,9.8479793 L179.525672,17.0502617 L177.797237,17.0502617 C176.177871,17.0502617 174.963347,17.4366973 174.153664,18.2095685 C173.344623,18.9817946 172.939781,20.3346418 172.939781,22.2655296 L172.939781,33.192819 L165.900289,33.192819 L165.900289,10.0963561 L172.939781,10.0963561" id="Fill-9"></path>
                        <path d="M192.286838,33.4824845 C188.938395,33.4824845 186.194969,32.3999487 184.053993,30.2329416 C181.913659,28.06787 180.843492,25.1905698 180.843492,21.6029764 C180.843492,18.0166733 181.906602,15.1606625 184.033463,13.0355892 C186.159682,10.9105159 188.911449,9.8479793 192.286838,9.8479793 C195.662869,9.8479793 198.461472,10.8969681 200.684571,12.9936555 C202.90767,15.0916331 204.018898,18.0024803 204.018898,21.7274874 C204.018898,22.5280994 203.96308,23.2732298 203.85401,23.9628787 L188.047231,23.9628787 C188.183889,24.9841267 188.637491,25.8182857 189.405471,26.466646 C190.17345,27.1150062 191.003664,27.4395089 191.896112,27.4395089 C192.787276,27.4395089 193.453243,27.3504803 193.892089,27.1704878 C194.330934,26.9911404 194.653653,26.811793 194.859602,26.6324455 C195.065551,26.4530981 195.333093,26.1563362 195.662869,25.7421598 L203.277865,25.7421598 C202.619597,28.0601284 201.301777,29.9303735 199.326331,31.3509598 C197.350243,32.7728364 195.003318,33.4824845 192.286838,33.4824845 L192.286838,33.4824845 Z M195.292032,16.9057516 C194.468234,16.2296505 193.494305,15.8909549 192.369603,15.8909549 C191.243618,15.8909549 190.296635,16.2296505 189.528655,16.9057516 C188.760676,17.5818526 188.280127,18.4573002 188.088293,19.5333847 L196.691333,19.5333847 C196.58098,18.4573002 196.115188,17.5818526 195.292032,16.9057516 L195.292032,16.9057516 Z" id="Fill-10"></path>
                    </g>
                    <path d="M86.7724868,66.9717197 L101.922281,57.2727665 L117.071434,66.9717197 L117.071434,0 L86.7724868,0 L86.7724868,66.9717197 Z M102.635726,49.1801984 L102.635726,52.6277975 C102.635726,53.0245553 102.316216,53.3458323 101.922281,53.3458323 C101.527705,53.3458323 101.208195,53.0245553 101.208195,52.6277975 L101.208195,49.1801984 C98.1747713,48.8240841 95.8188638,46.235159 95.8188638,43.0888377 C95.8188638,39.6993006 101.92164,29.0616766 101.92164,29.0616766 C101.92164,29.0616766 108.025057,39.6993006 108.025057,43.0888377 C108.025057,46.2345139 105.669791,48.8240841 102.635726,49.1801984 L102.635726,49.1801984 Z" id="Fill-11" fill="#16663B"></path>
                </g>
            </g>
        </g>
    </g>
</svg>