<?xml version="1.0" encoding="UTF-8" standalone="no"?>
<svg width="33px" height="41px" viewBox="0 0 33 41" version="1.1" xmlns="http://www.w3.org/2000/svg" xmlns:xlink="http://www.w3.org/1999/xlink">
    <!-- Generator: sketchtool 3.6.1 (26313) - http://www.bohemiancoding.com/sketch -->
    <title>49631D69-CA53-41E6-B4A3-AAB08EA09204</title>
    <desc>Created with sketchtool.</desc>
    <defs></defs>
    <g id="wecare" stroke="none" stroke-width="1" fill="none" fill-rule="evenodd">
        <g id="desktop_ui_kit" transform="translate(-1662.000000, -555.000000)">
            <g id="feiras" transform="translate(1662.000000, 555.000000)">
                <path d="M28.1029762,28.992831 L16.5331602,40.7095249 L4.96292488,28.992831 C-1.58694523,22.3596265 -1.58694523,11.6054541 4.96292488,4.9722497 C11.3530523,-1.49834081 21.713268,-1.49834081 28.1029762,4.9722497 C34.6532655,11.6054541 34.6532655,22.3596265 28.1029762,28.992831" id="Fill-1" fill="#16663B"></path>
                <path d="M20.8286037,10.324498 L12.2377166,10.324498 C10.9778037,10.324498 9.93591229,11.2768297 9.77071905,12.5076854 C9.77029977,12.5089592 9.77029977,12.5106575 9.77029977,12.5119312 C9.75562525,12.6223219 9.74514344,12.7339863 9.74514344,12.8481981 L9.74514344,22.1422419 C9.74514344,22.4942182 10.0268944,22.779111 10.3740517,22.779111 C10.3832757,22.779111 10.3912419,22.7769881 10.4000466,22.7765635 C10.40382,22.7769881 10.4071742,22.779111 10.4109477,22.779111 L22.6612424,22.779111 C22.6641773,22.779111 22.6675315,22.7769881 22.6704664,22.7769881 C22.6775941,22.7774127 22.6847217,22.779111 22.6918493,22.779111 C23.0390067,22.779111 23.3207576,22.4942182 23.3207576,22.1422419 L23.3207576,12.8481981 C23.3207576,11.4564268 22.2025587,10.324498 20.8286037,10.324498 L20.8286037,10.324498 Z M17.9612012,14.5240131 C17.9612012,15.3179767 17.3234882,15.9641866 16.53903,15.9641866 C15.754991,15.9641866 15.117278,15.3179767 15.117278,14.5240131 L15.117278,11.5982363 L17.9612012,11.5982363 L17.9612012,14.5240131 L17.9612012,14.5240131 Z M11.0155382,12.7250701 C11.0775905,12.0941451 11.5987458,11.5982363 12.2377166,11.5982363 L13.8594614,11.5982363 L13.8594614,14.5240131 C13.8594614,15.3179767 13.2213291,15.9641866 12.4372902,15.9641866 C11.6532512,15.9641866 11.0155382,15.3179767 11.0155382,14.5240131 L11.0155382,12.7250701 L11.0155382,12.7250701 Z M22.062941,19.5191901 L11.00296,19.5191901 L11.00296,16.8124963 C11.4184587,17.0804059 11.9098457,17.2379249 12.4372902,17.2379249 C13.2599022,17.2379249 13.9965634,16.8600492 14.4883697,16.2673363 C14.980176,16.8600492 15.7164179,17.2379249 16.53903,17.2379249 C17.361642,17.2379249 18.0983032,16.8600492 18.5901095,16.2673363 C19.0819158,16.8600492 19.818577,17.2379249 20.641189,17.2379249 C21.1636022,17.2379249 21.6503772,17.0829534 22.062941,16.8201387 L22.062941,19.5191901 L22.062941,19.5191901 Z M22.062941,13.1797947 L22.062941,14.5240131 C22.062941,15.3179767 21.425228,15.9641866 20.641189,15.9641866 C19.8571501,15.9641866 19.2190178,15.3179767 19.2190178,14.5240131 L19.2190178,11.5982363 L20.8286037,11.5982363 C21.5090825,11.5982363 22.062941,12.1591057 22.062941,12.8481981 L22.062941,13.1797947 L22.062941,13.1797947 Z" id="Fill-2" fill="#FFFFFF"></path>
            </g>
        </g>
    </g>
</svg>