<?xml version="1.0" encoding="UTF-8" standalone="no"?>
<svg width="34px" height="41px" viewBox="0 0 34 41" version="1.1" xmlns="http://www.w3.org/2000/svg" xmlns:xlink="http://www.w3.org/1999/xlink">
    <!-- Generator: sketchtool 3.6.1 (26313) - http://www.bohemiancoding.com/sketch -->
    <title>1B157C9F-46A9-4101-9FC9-C15FCEA948B0</title>
    <desc>Created with sketchtool.</desc>
    <defs></defs>
    <g id="wecare" stroke="none" stroke-width="1" fill="none" fill-rule="evenodd">
        <g id="desktop_ui_kit" transform="translate(-1704.000000, -554.000000)">
            <g id="hortas" transform="translate(1704.000000, 554.000000)">
                <path d="M28.3973052,28.992831 L16.82707,40.7095249 L5.25683468,28.992831 C-1.29303542,22.3596265 -1.29303542,11.6054541 5.25683468,4.9722497 L5.25725395,4.9722497 C11.6469621,-1.49834081 22.0071778,-1.49834081 28.3973052,4.9722497 C34.9471753,11.6054541 34.9471753,22.3596265 28.3973052,28.992831" id="Fill-1" fill="#16663B"></path>
                <path d="M20.8977836,18.4785459 C20.8977836,16.2478056 16.9092473,9.2469154 16.9092473,9.2469154 C16.9092473,9.2469154 12.9211303,16.2478056 12.9211303,18.4785459 C12.9211303,20.5487952 14.4602785,22.2530571 16.4430166,22.4874249 L16.4430166,24.7563774 C16.4430166,25.0174937 16.6518142,25.2289343 16.9092473,25.2289343 C17.1670997,25.2289343 17.3758972,25.0174937 17.3758972,24.7563774 L17.3758972,22.4874249 C19.3582161,22.2530571 20.8977836,20.5487952 20.8977836,18.4785459" id="Fill-2" fill="#FFFFFF"></path>
            </g>
        </g>
    </g>
</svg>