<?xml version="1.0" encoding="UTF-8" standalone="no"?>
<svg width="532px" height="328px" viewBox="0 0 532 328" version="1.1" xmlns="http://www.w3.org/2000/svg" xmlns:xlink="http://www.w3.org/1999/xlink" xmlns:sketch="http://www.bohemiancoding.com/sketch/ns">
    <!-- Generator: bin/sketchtool 1.4 (305) - http://www.bohemiancoding.com/sketch -->
    <title>ornamento</title>
    <desc>Created with bin/sketchtool.</desc>
    <defs></defs>
    <g id="wecare" stroke="none" stroke-width="1" fill="none" fill-rule="evenodd" sketch:type="MSPage">
        <g id="01.Desktop_Inicial" sketch:type="MSArtboardGroup" transform="translate(-746.000000, -727.000000)">
            <g id="ornamento" sketch:type="MSLayerGroup" transform="translate(745.000000, 727.000000)">
                <path d="M518.75,307.04 L365.028,307.04 C358.554,307.04 353.257,301.743 353.257,295.269 L353.257,68.271 C353.257,61.797 358.554,56.5 365.028,56.5 L518.75,56.5 C525.224,56.5 530.521,61.797 530.521,68.271 L530.521,295.269 C530.521,301.743 525.224,307.04 518.75,307.04 L518.75,307.04 Z" id="Fill-1" fill="#FFFFFF" sketch:type="MSShapeGroup"></path>
                <path d="M518.75,307.04 L365.028,307.04 C358.554,307.04 353.257,301.743 353.257,295.269 L353.257,68.271 C353.257,61.797 358.554,56.5 365.028,56.5 L518.75,56.5 C525.224,56.5 530.521,61.797 530.521,68.271 L530.521,295.269 C530.521,301.743 525.224,307.04 518.75,307.04 L518.75,307.04 Z" id="Stroke-2" stroke="#CCCCCC" stroke-width="3" stroke-linecap="round" stroke-linejoin="round" sketch:type="MSShapeGroup"></path>
                <path d="M359.186,282.227 L524.592,282.227 L524.592,76.092 L359.186,76.092 L359.186,282.227 Z" id="Fill-3" fill="#FFFFFF" sketch:type="MSShapeGroup"></path>
                <path d="M359.186,282.227 L524.592,282.227 L524.592,76.092 L359.186,76.092 L359.186,282.227 Z" id="Stroke-4" stroke="#CCCCCC" stroke-width="3" stroke-linecap="round" stroke-linejoin="round" sketch:type="MSShapeGroup"></path>
                <path d="M451.732,69.506 L432.045,69.506 C431.41,69.506 430.889,68.985 430.889,68.349 C430.889,67.714 431.41,67.194 432.045,67.194 L451.732,67.194 C452.369,67.194 452.889,67.714 452.889,68.349 C452.889,68.985 452.369,69.506 451.732,69.506 L451.732,69.506 Z" id="Fill-5" fill="#FFFFFF" sketch:type="MSShapeGroup"></path>
                <path d="M451.732,69.506 L432.045,69.506 C431.41,69.506 430.889,68.985 430.889,68.349 C430.889,67.714 431.41,67.194 432.045,67.194 L451.732,67.194 C452.369,67.194 452.889,67.714 452.889,68.349 C452.889,68.985 452.369,69.506 451.732,69.506 L451.732,69.506 Z" id="Stroke-6" stroke="#CCCCCC" stroke-width="3" stroke-linecap="round" stroke-linejoin="round" sketch:type="MSShapeGroup"></path>
                <path d="M448.19,293.97 C448.19,297.45 445.369,300.271 441.889,300.271 C438.409,300.271 435.588,297.45 435.588,293.97 C435.588,290.49 438.409,287.668 441.889,287.668 C445.369,287.668 448.19,290.49 448.19,293.97 L448.19,293.97 Z" id="Fill-7" fill="#FFFFFF" sketch:type="MSShapeGroup"></path>
                <path d="M448.19,293.97 C448.19,297.45 445.369,300.271 441.889,300.271 C438.409,300.271 435.588,297.45 435.588,293.97 C435.588,290.49 438.409,287.668 441.889,287.668 C445.369,287.668 448.19,290.49 448.19,293.97 L448.19,293.97 Z" id="Stroke-8" stroke="#CCCCCC" stroke-width="3" stroke-linecap="round" stroke-linejoin="round" sketch:type="MSShapeGroup"></path>
                <path d="M263.042,305.482 L226.225,305.482 C226.225,305.482 211.616,308.98 211.616,259.378 L165.616,259.378 C165.616,308.98 151.006,305.482 151.006,305.482 L114.19,305.482 C94.905,305.482 99.58,321.9 99.58,321.9 L277.652,321.9 C277.652,321.9 282.327,305.482 263.042,305.482 L263.042,305.482 Z" id="Fill-9" fill="#FFFFFF" sketch:type="MSShapeGroup"></path>
                <path d="M263.042,305.482 L226.225,305.482 C226.225,305.482 211.616,308.98 211.616,259.378 L165.616,259.378 C165.616,308.98 151.006,305.482 151.006,305.482 L114.19,305.482 C94.905,305.482 99.58,321.9 99.58,321.9 L277.652,321.9 C277.652,321.9 282.327,305.482 263.042,305.482 L263.042,305.482 Z" id="Stroke-10" stroke="#CCCCCC" stroke-width="3" stroke-linecap="round" stroke-linejoin="round" sketch:type="MSShapeGroup"></path>
                <path d="M359.472,278.614 L17.76,278.614 C9.628,278.614 2.974,271.96 2.974,263.828 L2.974,16.47 C2.974,8.338 9.628,1.685 17.76,1.685 L359.472,1.685 C367.604,1.685 374.257,8.338 374.257,16.47 L374.257,263.828 C374.257,271.96 367.604,278.614 359.472,278.614 L359.472,278.614 Z" id="Fill-11" fill="#FFFFFF" sketch:type="MSShapeGroup"></path>
                <path d="M359.472,278.614 L17.76,278.614 C9.628,278.614 2.974,271.96 2.974,263.828 L2.974,16.47 C2.974,8.338 9.628,1.685 17.76,1.685 L359.472,1.685 C367.604,1.685 374.257,8.338 374.257,16.47 L374.257,263.828 C374.257,271.96 367.604,278.614 359.472,278.614 L359.472,278.614 Z" id="Stroke-12" stroke="#CCCCCC" stroke-width="3" stroke-linecap="round" stroke-linejoin="round" sketch:type="MSShapeGroup"></path>
                <path d="M17.669,18.466 L359.563,18.466 L359.563,239.953 L17.669,239.953 L17.669,18.466 Z" id="Fill-13" fill="#FFFFFF" sketch:type="MSShapeGroup"></path>
                <path d="M17.669,18.466 L359.563,18.466 L359.563,239.953 L17.669,239.953 L17.669,18.466 Z" id="Stroke-14" stroke="#CCCCCC" stroke-width="3" stroke-linecap="round" stroke-linejoin="round" sketch:type="MSShapeGroup"></path>
                <path d="M193.825,260.375 C193.825,257.498 188.616,248.469 188.616,248.469 C188.615,248.469 183.407,257.498 183.407,260.375 C183.407,263.045 185.418,265.243 188.007,265.545 L188.007,268.472 C188.007,268.808 188.279,269.081 188.616,269.081 C188.952,269.081 189.225,268.808 189.225,268.472 L189.225,265.545 C191.814,265.243 193.825,263.045 193.825,260.375" id="Fill-15" fill="#CCCCCC" sketch:type="MSShapeGroup"></path>
                <path d="M382.587,326.412 L323.449,326.412 C316.975,326.412 311.678,321.115 311.678,314.641 L311.678,182.296 C311.678,175.822 316.975,170.525 323.449,170.525 L382.587,170.525 C389.061,170.525 394.358,175.822 394.358,182.296 L394.358,314.641 C394.358,321.115 389.061,326.412 382.587,326.412 L382.587,326.412 Z" id="Fill-16" fill="#FFFFFF" sketch:type="MSShapeGroup"></path>
                <path d="M382.587,326.412 L323.449,326.412 C316.975,326.412 311.678,321.115 311.678,314.641 L311.678,182.296 C311.678,175.822 316.975,170.525 323.449,170.525 L382.587,170.525 C389.061,170.525 394.358,175.822 394.358,182.296 L394.358,314.641 C394.358,321.115 389.061,326.412 382.587,326.412 L382.587,326.412 Z" id="Stroke-17" stroke="#CCCCCC" stroke-width="3" stroke-linecap="round" stroke-linejoin="round" sketch:type="MSShapeGroup"></path>
                <path d="M317.606,301.599 L388.429,301.599 L388.429,190.116 L317.606,190.116 L317.606,301.599 Z" id="Fill-18" fill="#FFFFFF" sketch:type="MSShapeGroup"></path>
                <path d="M317.606,301.599 L388.429,301.599 L388.429,190.116 L317.606,190.116 L317.606,301.599 Z" id="Stroke-19" stroke="#CCCCCC" stroke-width="3" stroke-linecap="round" stroke-linejoin="round" sketch:type="MSShapeGroup"></path>
                <path d="M362.861,183.53 L343.174,183.53 C342.539,183.53 342.018,183.01 342.018,182.374 C342.018,181.738 342.539,181.218 343.174,181.218 L362.861,181.218 C363.497,181.218 364.018,181.738 364.018,182.374 C364.018,183.01 363.497,183.53 362.861,183.53 L362.861,183.53 Z" id="Fill-20" fill="#FFFFFF" sketch:type="MSShapeGroup"></path>
                <path d="M362.861,183.53 L343.174,183.53 C342.539,183.53 342.018,183.01 342.018,182.374 C342.018,181.738 342.539,181.218 343.174,181.218 L362.861,181.218 C363.497,181.218 364.018,181.738 364.018,182.374 C364.018,183.01 363.497,183.53 362.861,183.53 L362.861,183.53 Z" id="Stroke-21" stroke="#CCCCCC" stroke-width="3" stroke-linecap="round" stroke-linejoin="round" sketch:type="MSShapeGroup"></path>
                <path d="M359.319,313.341 C359.319,316.821 356.498,319.643 353.018,319.643 C349.538,319.643 346.717,316.821 346.717,313.341 C346.717,309.861 349.538,307.04 353.018,307.04 C356.498,307.04 359.319,309.861 359.319,313.341 L359.319,313.341 Z" id="Fill-22" fill="#FFFFFF" sketch:type="MSShapeGroup"></path>
                <path d="M359.319,313.341 C359.319,316.821 356.498,319.643 353.018,319.643 C349.538,319.643 346.717,316.821 346.717,313.341 C346.717,309.861 349.538,307.04 353.018,307.04 C356.498,307.04 359.319,309.861 359.319,313.341 L359.319,313.341 Z" id="Stroke-23" stroke="#CCCCCC" stroke-width="3" stroke-linecap="round" stroke-linejoin="round" sketch:type="MSShapeGroup"></path>
            </g>
        </g>
    </g>
</svg>