<?xml version="1.0" encoding="UTF-8" standalone="no"?>
<svg width="166px" height="226px" viewBox="0 0 166 226" version="1.1" xmlns="http://www.w3.org/2000/svg" xmlns:xlink="http://www.w3.org/1999/xlink">
    <!-- Generator: sketchtool 3.6.1 (26313) - http://www.bohemiancoding.com/sketch -->
    <title>A171CEC2-1CE5-4277-92A1-46220389E4EB</title>
    <desc>Created with sketchtool.</desc>
    <defs></defs>
    <g id="wecare" stroke="none" stroke-width="1" fill="none" fill-rule="evenodd">
        <g id="003-desk-login" transform="translate(-637.000000, -154.000000)" fill="#16663B">
            <g id="Group" transform="translate(540.000000, 154.000000)">
                <path d="M97,0 L97,226 L179.592526,173.37087 L262.181554,226 L262.181554,0 L97,0 L97,0 Z M183.482031,129.458418 L183.482031,148.166019 C183.482031,150.318933 181.740149,152.062269 179.592526,152.062269 C177.441406,152.062269 175.699523,150.318933 175.699523,148.166019 L175.699523,129.458418 C159.16213,127.526046 146.318368,113.477842 146.318368,96.4050558 C146.318368,78.0125157 179.589028,20.2899054 179.589028,20.2899054 C179.589028,20.2899054 212.863187,78.0125157 212.863187,96.4050558 C212.863187,113.474341 200.022922,127.526046 183.482031,129.458418 L183.482031,129.458418 Z" id="Imported-Layers"></path>
            </g>
        </g>
    </g>
</svg>