<?xml version="1.0" encoding="UTF-8" standalone="no"?>
<svg width="165px" height="43px" viewBox="0 0 165 43" version="1.1" xmlns="http://www.w3.org/2000/svg" xmlns:xlink="http://www.w3.org/1999/xlink" xmlns:sketch="http://www.bohemiancoding.com/sketch/ns">
    <!-- Generator: bin/sketchtool 1.4 (305) - http://www.bohemiancoding.com/sketch -->
    <title>twitter-hover</title>
    <desc>Created with bin/sketchtool.</desc>
    <defs></defs>
    <g id="wecare" stroke="none" stroke-width="1" fill="none" fill-rule="evenodd" sketch:type="MSPage">
        <g id="09.Desktop_UIKIT" sketch:type="MSArtboardGroup" transform="translate(-1188.000000, -565.000000)">
            <g id="twitter-hover" sketch:type="MSLayerGroup" transform="translate(1188.000000, 565.000000)">
                <rect id="Rectangle-28" fill="#51B5E2" sketch:type="MSShapeGroup" x="0" y="0" width="165" height="43" rx="40"></rect>
                <g id="entrar-com-o-faceboo-+-Imported-Layers" transform="translate(26.000000, 10.000000)" fill="#FFFFFF">
                    <text id="com-twitter" sketch:type="MSTextLayer" font-family="Poppins" font-size="14" font-weight="bold" sketch:alignment="middle">
                        <tspan x="26.625" y="16">com twitter</tspan>
                    </text>
                    <path d="M21.9510219,4.12295067 C21.143365,4.48295067 20.2754088,4.72639462 19.3644161,4.83584753 C20.2942774,4.27550673 21.0083139,3.38826009 21.3445766,2.33102242 C20.4744526,2.84987444 19.5106277,3.22666368 18.4848175,3.42974888 C17.6632701,2.54976682 16.492854,2 15.1975839,2 C12.7103796,2 10.693927,4.0270583 10.693927,6.52728251 C10.693927,6.88211659 10.7338321,7.22758744 10.8105912,7.55901345 C7.06770073,7.37021525 3.74931387,5.56779372 1.52811679,2.82864574 C1.14046715,3.49739013 0.918379562,4.27502242 0.918379562,5.10479821 C0.918379562,6.67547982 1.71351095,8.06123767 2.92190511,8.87309417 C2.18362044,8.84960538 1.48925547,8.64595516 0.882007299,8.30678027 C0.881686131,8.32574888 0.881686131,8.34463677 0.881686131,8.36376682 C0.881686131,10.5573453 2.4339708,12.3872108 4.49426277,12.8030673 C4.11632847,12.9064664 3.71840146,12.9618386 3.30770803,12.9618386 C3.01753285,12.9618386 2.73538686,12.933426 2.46038686,12.8806368 C3.03351095,14.6792646 4.69667883,15.9882601 6.66736496,16.0248251 C5.12608029,17.2390583 3.18421898,17.962852 1.07430657,17.962852 C0.710744526,17.962852 0.352321168,17.9413812 0,17.8996502 C1.9930073,19.1841883 4.36025547,19.9336502 6.90342336,19.9336502 C15.1870657,19.9336502 19.7168175,13.0349686 19.7168175,7.05226906 C19.7168175,6.85596413 19.7124818,6.66070852 19.7038102,6.46658296 C20.5836496,5.82818834 21.3472263,5.03086099 21.9510219,4.12295067" id="Imported-Layers" sketch:type="MSShapeGroup"></path>
                </g>
            </g>
        </g>
    </g>
</svg>